<svg width="25" height="25" viewBox="0 0 25 25" fill="none" xmlns="http://www.w3.org/2000/svg">
<path d="M23.291 0H14.9902C14.0479 0 13.2812 0.76665 13.2812 1.70898V10.0098C13.2812 10.9521 14.0479 11.7188 14.9902 11.7188H23.291C24.2333 11.7188 25 10.9521 25 10.0098V1.70898C25 0.76665 24.2333 0 23.291 0ZM21.582 6.5918H16.6992C16.2947 6.5918 15.9668 6.26387 15.9668 5.85938C15.9668 5.45488 16.2947 5.12695 16.6992 5.12695H21.582C21.9865 5.12695 22.3145 5.45488 22.3145 5.85938C22.3145 6.26387 21.9865 6.5918 21.582 6.5918Z" fill="url(#paint0_linear)"/>
<path d="M23.291 13.2812H14.9902C14.0479 13.2812 13.2812 14.0479 13.2812 14.9902V23.291C13.2812 24.2333 14.0479 25 14.9902 25H23.291C24.2333 25 25 24.2333 25 23.291V14.9902C25 14.0479 24.2333 13.2812 23.291 13.2812ZM21.582 21.0938H16.6992C16.2947 21.0938 15.9668 20.7658 15.9668 20.3613C15.9668 19.9568 16.2947 19.6289 16.6992 19.6289H21.582C21.9865 19.6289 22.3145 19.9568 22.3145 20.3613C22.3145 20.7658 21.9865 21.0938 21.582 21.0938ZM21.582 18.1641H16.6992C16.2947 18.1641 15.9668 17.8361 15.9668 17.4316C15.9668 17.0271 16.2947 16.6992 16.6992 16.6992H21.582C21.9865 16.6992 22.3145 17.0271 22.3145 17.4316C22.3145 17.8361 21.9865 18.1641 21.582 18.1641Z" fill="url(#paint1_linear)"/>
<path d="M10.0098 0H1.70898C0.76665 0 0 0.76665 0 1.70898V10.0098C0 10.9521 0.76665 11.7188 1.70898 11.7188H10.0098C10.9521 11.7188 11.7188 10.9521 11.7188 10.0098V1.70898C11.7188 0.76665 10.9521 0 10.0098 0ZM8.30078 6.56274H6.6208V8.30078C6.6208 8.70527 6.29287 9.0332 5.88838 9.0332C5.48389 9.0332 5.15596 8.70527 5.15596 8.30078V6.56274H3.41797C3.01348 6.56274 2.68555 6.23481 2.68555 5.83032C2.68555 5.42583 3.01348 5.0979 3.41797 5.0979H5.15596V3.41797C5.15596 3.01348 5.48389 2.68555 5.88838 2.68555C6.29287 2.68555 6.6208 3.01348 6.6208 3.41797V5.0979H8.30078C8.70527 5.0979 9.0332 5.42583 9.0332 5.83032C9.0332 6.23481 8.70527 6.56274 8.30078 6.56274Z" fill="url(#paint2_linear)"/>
<path d="M10.0098 13.2812H1.70898C0.76665 13.2812 0 14.0479 0 14.9902V23.291C0 24.2333 0.76665 25 1.70898 25H10.0098C10.9521 25 11.7188 24.2333 11.7188 23.291V14.9902C11.7188 14.0479 10.9521 13.2812 10.0098 13.2812ZM8.81865 21.0351C9.10469 21.3211 9.10469 21.7849 8.81865 22.0709C8.67564 22.2139 8.48818 22.2854 8.30078 22.2854C8.11338 22.2854 7.92588 22.2139 7.78291 22.0709L5.88843 20.1764L3.93589 22.129C3.79287 22.272 3.60542 22.3435 3.41802 22.3435C3.23062 22.3435 3.04312 22.272 2.90015 22.129C2.61411 21.843 2.61411 21.3792 2.90015 21.0932L4.85264 19.1406L2.9001 17.1881C2.61406 16.9021 2.61406 16.4383 2.9001 16.1523C3.18608 15.8663 3.64985 15.8663 3.93589 16.1523L5.88843 18.1048L7.78291 16.2104C8.0689 15.9244 8.53267 15.9244 8.8187 16.2104C9.10474 16.4963 9.10474 16.9601 8.8187 17.2461L6.92422 19.1406L8.81865 21.0351Z" fill="url(#paint3_linear)"/>
<defs>
<linearGradient id="paint0_linear" x1="24.1629" y1="1.25558" x2="14.9554" y2="9.20759" gradientUnits="userSpaceOnUse">
<stop stop-color="#EECE83"/>
<stop offset="0.203125" stop-color="#C8A237"/>
<stop offset="0.40625" stop-color="#FFDE87"/>
<stop offset="0.59375" stop-color="#E8C970"/>
<stop offset="0.802083" stop-color="#D7AE44"/>
<stop offset="1" stop-color="#A26A0D"/>
</linearGradient>
<linearGradient id="paint1_linear" x1="24.1629" y1="14.5368" x2="14.9554" y2="22.4888" gradientUnits="userSpaceOnUse">
<stop stop-color="#EECE83"/>
<stop offset="0.203125" stop-color="#C8A237"/>
<stop offset="0.40625" stop-color="#FFDE87"/>
<stop offset="0.59375" stop-color="#E8C970"/>
<stop offset="0.802083" stop-color="#D7AE44"/>
<stop offset="1" stop-color="#A26A0D"/>
</linearGradient>
<linearGradient id="paint2_linear" x1="10.8817" y1="1.25558" x2="1.67411" y2="9.20759" gradientUnits="userSpaceOnUse">
<stop stop-color="#EECE83"/>
<stop offset="0.203125" stop-color="#C8A237"/>
<stop offset="0.40625" stop-color="#FFDE87"/>
<stop offset="0.59375" stop-color="#E8C970"/>
<stop offset="0.802083" stop-color="#D7AE44"/>
<stop offset="1" stop-color="#A26A0D"/>
</linearGradient>
<linearGradient id="paint3_linear" x1="10.8817" y1="14.5368" x2="1.67411" y2="22.4888" gradientUnits="userSpaceOnUse">
<stop stop-color="#EECE83"/>
<stop offset="0.203125" stop-color="#C8A237"/>
<stop offset="0.40625" stop-color="#FFDE87"/>
<stop offset="0.59375" stop-color="#E8C970"/>
<stop offset="0.802083" stop-color="#D7AE44"/>
<stop offset="1" stop-color="#A26A0D"/>
</linearGradient>
</defs>
</svg>
