<svg width="50" height="50" viewBox="0 0 50 50" fill="none" xmlns="http://www.w3.org/2000/svg">
<g clip-path="url(#clip0)">
<path d="M36.4579 50C36.1308 50 35.8037 49.8979 35.5267 49.6917C34.235 48.7312 22.9163 40.1042 22.9163 32.7875C22.9163 28.4937 26.4225 25 30.7288 25C32.9433 25 35.0079 25.9292 36.4579 27.4875C37.9079 25.9292 39.9725 25 42.1871 25C46.4933 25 49.9996 28.4937 49.9996 32.7875C49.9996 40.1042 38.6808 48.7312 37.3892 49.6917C37.1121 49.8979 36.785 50 36.4579 50Z" fill="url(#paint0_linear)"/>
<path d="M42.9375 19.4792L37.5 14.2917V3.64583C37.5 2.79167 36.7917 2.08333 35.9375 2.08333H29.6875C28.8333 2.08333 28.125 2.79167 28.125 3.64583V5.35417L22.9583 0.4375C22.3542 -0.145833 21.3958 -0.145833 20.7917 0.4375L0.854167 19.4375C0.3125 19.9167 0 20.625 0 21.3542C0 22.7917 1.16667 23.9583 2.60417 23.9583H6.25V36.9792C6.25 39.5625 8.35417 41.6667 10.9375 41.6667H21.8542C20.0208 38.8958 18.75 35.8333 18.75 32.7917C18.75 26.1875 24.125 20.8333 30.7292 20.8333C32.75 20.8333 34.7083 21.3542 36.4583 22.2917C38.2083 21.3542 40.1667 20.8333 42.1875 20.8333C42.7083 20.8333 43.2083 20.875 43.7083 20.9375C43.625 20.3542 43.3333 19.8333 42.9375 19.4792Z" fill="url(#paint1_linear)"/>
</g>
<defs>
<linearGradient id="paint0_linear" x1="48.065" y1="27.6786" x2="28.2546" y2="46.2133" gradientUnits="userSpaceOnUse">
<stop stop-color="#EECE83"/>
<stop offset="0.203125" stop-color="#C8A237"/>
<stop offset="0.40625" stop-color="#FFDE87"/>
<stop offset="0.59375" stop-color="#E8C970"/>
<stop offset="0.802083" stop-color="#D7AE44"/>
<stop offset="1" stop-color="#A26A0D"/>
</linearGradient>
<linearGradient id="paint1_linear" x1="40.5863" y1="4.46429" x2="7.65651" y2="34.2972" gradientUnits="userSpaceOnUse">
<stop stop-color="#EECE83"/>
<stop offset="0.203125" stop-color="#C8A237"/>
<stop offset="0.40625" stop-color="#FFDE87"/>
<stop offset="0.59375" stop-color="#E8C970"/>
<stop offset="0.802083" stop-color="#D7AE44"/>
<stop offset="1" stop-color="#A26A0D"/>
</linearGradient>
<clipPath id="clip0">
<rect width="50" height="50" fill="white"/>
</clipPath>
</defs>
</svg>
