<svg width="50" height="50" viewBox="0 0 50 50" fill="none" xmlns="http://www.w3.org/2000/svg">
<g clip-path="url(#clip0)">
<path d="M0.681077 25.0648C0.143596 25.2627 -0.133445 25.8585 0.0623485 26.3981L0.716525 28.198L5.6975 23.2169L0.681077 25.0648Z" fill="url(#paint0_linear)"/>
<path d="M5.396 41.0643L8.39589 49.314C8.48964 49.5745 8.68543 49.787 8.93542 49.9015C9.07497 49.9661 9.22496 49.9995 9.37496 49.9995C9.4979 49.9995 9.6187 49.9787 9.73539 49.9349L13.0457 48.7142L5.396 41.0643Z" fill="url(#paint1_linear)"/>
<path d="M49.9363 34.0208L46.5032 24.5815L38.2639 32.8208L42.3471 31.3167C42.8825 31.1125 43.4866 31.3917 43.6845 31.9333C43.8845 32.4729 43.6075 33.0728 43.0678 33.2708L37.8805 35.1832C37.7618 35.227 37.641 35.2478 37.5201 35.2478C37.0971 35.2478 36.6972 34.9873 36.5431 34.5665C36.541 34.5603 36.5431 34.554 36.541 34.5478L27.8101 43.2787L49.3176 35.354C49.8571 35.1562 50.1342 34.5603 49.9363 34.0208Z" fill="url(#paint2_linear)"/>
<path d="M49.6951 16.9715L33.0289 0.305409C32.6227 -0.100826 31.9623 -0.100826 31.556 0.305409L0.307118 31.5543C-0.0991176 31.9605 -0.0991176 32.621 0.307118 33.0272L16.9732 49.6933C17.1753 49.8975 17.442 49.9996 17.7087 49.9996C17.9754 49.9996 18.2419 49.8975 18.4461 49.6954L49.6951 18.4465C50.1013 18.0382 50.1013 17.3798 49.6951 16.9715ZM12.1964 28.8628L8.0298 33.0293C7.82561 33.2313 7.55902 33.3334 7.29233 33.3334C7.02564 33.3334 6.75904 33.2314 6.55485 33.0293C6.14862 32.623 6.14862 31.9626 6.55485 31.5564L10.7214 27.3898C11.1276 26.9836 11.7881 26.9836 12.1943 27.3898C12.6005 27.7961 12.6026 28.4544 12.1964 28.8628ZM30.1853 30.1856C29.4478 30.9231 28.4458 31.2773 27.3312 31.2773C25.4895 31.2773 23.3376 30.3127 21.5376 28.5107C20.221 27.194 19.296 25.6191 18.9357 24.0775C18.5357 22.3588 18.8649 20.8631 19.8627 19.8631C20.8606 18.8632 22.3564 18.534 24.0771 18.9361C25.6187 19.2965 27.1937 20.2194 28.5102 21.5381C31.404 24.4296 32.1415 28.2294 30.1853 30.1856ZM43.4453 18.4465L39.2787 22.613C39.0745 22.8151 38.8079 22.9172 38.5412 22.9172C38.2746 22.9172 38.008 22.8152 37.8038 22.613C37.3975 22.2068 37.3975 21.5464 37.8038 21.1401L41.9703 16.9736C42.3766 16.5673 43.037 16.5673 43.4432 16.9736C43.8495 17.3798 43.8515 18.0382 43.4453 18.4465Z" fill="url(#paint3_linear)"/>
</g>
<defs>
<linearGradient id="paint0_linear" x1="5.2905" y1="23.7506" x2="1.33496" y2="27.6584" gradientUnits="userSpaceOnUse">
<stop stop-color="#EECE83"/>
<stop offset="0.203125" stop-color="#C8A237"/>
<stop offset="0.40625" stop-color="#FFDE87"/>
<stop offset="0.59375" stop-color="#E8C970"/>
<stop offset="0.802083" stop-color="#D7AE44"/>
<stop offset="1" stop-color="#A26A0D"/>
</linearGradient>
<linearGradient id="paint1_linear" x1="12.4993" y1="42.0217" x2="5.71486" y2="47.0381" gradientUnits="userSpaceOnUse">
<stop stop-color="#EECE83"/>
<stop offset="0.203125" stop-color="#C8A237"/>
<stop offset="0.40625" stop-color="#FFDE87"/>
<stop offset="0.59375" stop-color="#E8C970"/>
<stop offset="0.802083" stop-color="#D7AE44"/>
<stop offset="1" stop-color="#A26A0D"/>
</linearGradient>
<linearGradient id="paint2_linear" x1="48.4152" y1="26.5848" x2="33.5709" y2="41.7999" gradientUnits="userSpaceOnUse">
<stop stop-color="#EECE83"/>
<stop offset="0.203125" stop-color="#C8A237"/>
<stop offset="0.40625" stop-color="#FFDE87"/>
<stop offset="0.59375" stop-color="#E8C970"/>
<stop offset="0.802083" stop-color="#D7AE44"/>
<stop offset="1" stop-color="#A26A0D"/>
</linearGradient>
<linearGradient id="paint3_linear" x1="46.4285" y1="5.35775" x2="7.14388" y2="39.2843" gradientUnits="userSpaceOnUse">
<stop stop-color="#EECE83"/>
<stop offset="0.203125" stop-color="#C8A237"/>
<stop offset="0.40625" stop-color="#FFDE87"/>
<stop offset="0.59375" stop-color="#E8C970"/>
<stop offset="0.802083" stop-color="#D7AE44"/>
<stop offset="1" stop-color="#A26A0D"/>
</linearGradient>
<clipPath id="clip0">
<rect width="50" height="50" fill="white"/>
</clipPath>
</defs>
</svg>
