<svg width="16" height="18" viewBox="0 0 16 18" fill="none" xmlns="http://www.w3.org/2000/svg">
<path d="M12.1703 1.95804C10.545 1.95804 9.0248 1.23586 7.9999 0C6.97587 1.23504 5.45564 1.95804 3.83033 1.95804C2.78792 1.95804 1.77808 1.65951 0.911621 1.10577V9.30896C0.911621 13.5803 6.82241 17.3012 7.99987 18C9.1765 17.3012 15.0881 13.5761 15.0881 9.30896V1.10659C14.2217 1.65947 13.2118 1.95804 12.1703 1.95804ZM10.7977 7.10243L7.45953 10.4381C7.38115 10.5156 7.27522 10.5598 7.16514 10.5598C7.05507 10.5598 6.94831 10.5156 6.86994 10.4381L5.2046 8.77023C5.04199 8.6068 5.04199 8.34326 5.2046 8.17982C5.36722 8.01803 5.63158 8.01721 5.79501 8.17982L7.16597 9.55245L10.2089 6.51202C10.3715 6.34941 10.6359 6.34941 10.7985 6.51202C10.9611 6.67463 10.9611 6.93982 10.7977 7.10243Z" fill="#56E753"/>
</svg>
