<svg class="icon__phone-one" viewBox="0 0 18 19"  xmlns="http://www.w3.org/2000/svg">
<path d="M15.3659 2.73877C13.6725 1.05127 11.4146 0.11377 9.03136 0.11377C4.07665 0.11377 0.0627168 4.11377 0.0627168 9.05127C0.0627168 10.6138 0.501742 12.1763 1.25436 13.4888L0 18.1138L4.76655 16.8638C6.08362 17.5513 7.52613 17.9263 9.03136 17.9263C13.9861 17.9263 18 13.9263 18 8.98877C17.9373 6.67627 17.0592 4.42627 15.3659 2.73877ZM13.3589 12.2388C13.1707 12.7388 12.2927 13.2388 11.8537 13.3013C11.4773 13.3638 10.9756 13.3638 10.4739 13.2388C10.1603 13.1138 9.72125 12.9888 9.21951 12.7388C6.96167 11.8013 5.51917 9.55127 5.39373 9.36377C5.26829 9.23877 4.45296 8.17627 4.45296 7.05127C4.45296 5.92627 5.01742 5.42627 5.20557 5.17627C5.39373 4.92627 5.6446 4.92627 5.83275 4.92627C5.95819 4.92627 6.14634 4.92627 6.27177 4.92627C6.39721 4.92627 6.58536 4.86377 6.77352 5.30127C6.96167 5.73877 7.40069 6.86377 7.46341 6.92627C7.52613 7.05127 7.52613 7.17627 7.46341 7.30127C7.40069 7.42627 7.33798 7.55127 7.21254 7.67627C7.08711 7.80127 6.96167 7.98877 6.89895 8.05127C6.77352 8.17627 6.64808 8.30127 6.77352 8.48877C6.89895 8.73877 7.33798 9.42627 8.02787 10.0513C8.90592 10.8013 9.59582 11.0513 9.84669 11.1763C10.0976 11.3013 10.223 11.2388 10.3484 11.1138C10.4739 10.9888 10.9129 10.4888 11.0383 10.2388C11.1638 9.98877 11.3519 10.0513 11.5401 10.1138C11.7282 10.1763 12.8571 10.7388 13.0453 10.8638C13.2962 10.9888 13.4216 11.0513 13.4843 11.1138C13.547 11.3013 13.547 11.7388 13.3589 12.2388Z"/>
</svg>
