<svg width="26" height="27" viewBox="0 0 26 27" fill="none" xmlns="http://www.w3.org/2000/svg">
<path d="M20.312 25.5198C19.8036 25.367 19.3191 25.2643 18.8692 25.0793C14.2071 23.1634 9.91644 20.6917 6.51773 16.9027C4.58498 14.7481 3.07225 12.3155 1.7935 9.74125C1.18711 8.52044 0.676072 7.25181 0.155185 5.99147C-0.319777 4.84211 0.379805 3.65472 1.11646 2.78873C1.8077 1.97602 2.69716 1.35403 3.66044 0.895645C4.4123 0.537838 5.15397 0.744118 5.70308 1.37537C6.89015 2.7401 7.98052 4.17464 8.86347 5.75657C9.40641 6.72958 9.25744 7.91896 8.27345 8.58114C8.0343 8.7421 7.81636 8.93101 7.59357 9.11281C7.39818 9.27211 7.2143 9.43307 7.08037 9.64878C6.83554 10.0435 6.82385 10.509 6.9815 10.9381C8.19495 14.2412 10.2403 16.8097 13.5967 18.1931C14.1338 18.4145 14.6732 18.6722 15.292 18.6007C16.3282 18.4808 16.6638 17.355 17.3899 16.7667C18.0997 16.1919 19.0067 16.1843 19.7712 16.6635C20.5359 17.1429 21.2773 17.6575 22.0141 18.1776C22.7374 18.6881 23.4575 19.1875 24.1247 19.7695C24.7662 20.3291 24.9871 21.0632 24.6259 21.8227C23.9645 23.2135 23.0023 24.3707 21.6141 25.1093C21.2222 25.3175 20.754 25.385 20.312 25.5198C19.8036 25.3668 20.754 25.385 20.312 25.5198Z" fill="url(#paint0_linear)"/>
<defs>
<linearGradient id="paint0_linear" x1="23.0278" y1="3.37775" x2="3.54273" y2="20.2057" gradientUnits="userSpaceOnUse">
<stop stop-color="#EECE83"/>
<stop offset="0.203125" stop-color="#C8A237"/>
<stop offset="0.40625" stop-color="#FFDE87"/>
<stop offset="0.59375" stop-color="#E8C970"/>
<stop offset="0.802083" stop-color="#D7AE44"/>
<stop offset="1" stop-color="#A26A0D"/>
</linearGradient>
</defs>
</svg>
