<svg width="18" height="18" viewBox="0 0 18 18" fill="none" xmlns="http://www.w3.org/2000/svg">
<path d="M16.2966 1.82479H13.5604V0.684082C13.5603 0.306496 13.2536 0 12.8762 0C12.4981 0 12.1921 0.306496 12.1921 0.684082V1.82479H6.03552V0.684082C6.03552 0.306496 5.72903 0 5.35144 0C4.97352 0 4.66736 0.306496 4.66736 0.684082V1.82479H1.70264C1.325 1.82479 1.01855 2.13123 1.01855 2.50887V17.3159C1.01855 17.6937 1.325 18 1.70264 18H16.2966C16.6741 18 16.9807 17.6937 16.9807 17.3159V2.50887C16.9807 2.13118 16.6741 1.82479 16.2966 1.82479ZM10.0037 15.221H9.05504V8.88093H9.0329L7.77143 9.56168L7.58152 8.81313L9.16662 7.9654H10.0037V15.221ZM15.6126 5.58713H2.38672V3.1929H4.66736V3.87693C4.66736 4.25457 4.97352 4.56101 5.35144 4.56101C5.72908 4.56101 6.03552 4.25457 6.03552 3.87693V3.1929H12.1921V3.87693C12.1921 4.25457 12.4981 4.56101 12.8762 4.56101C13.2536 4.56101 13.5603 4.25457 13.5603 3.87693V3.1929H15.6126V5.58713Z" fill="url(#paint0_linear)"/>
<defs>
<linearGradient id="paint0_linear" x1="15.8406" y1="1.92857" x2="2.0394" y2="12.4983" gradientUnits="userSpaceOnUse">
<stop stop-color="#EECE83"/>
<stop offset="0.203125" stop-color="#C8A237"/>
<stop offset="0.40625" stop-color="#FFDE87"/>
<stop offset="0.59375" stop-color="#E8C970"/>
<stop offset="0.802083" stop-color="#D7AE44"/>
<stop offset="1" stop-color="#A26A0D"/>
</linearGradient>
</defs>
</svg>
