<svg width="16" height="16" viewBox="0 0 16 16" fill="none" xmlns="http://www.w3.org/2000/svg">
<path d="M14.9732 0.0624597L0.339879 6.83119C-0.134095 7.05046 -0.105381 7.8578 0.382518 8.02878L4.10099 9.33216L5.48873 14.559C5.63369 15.105 6.21657 15.2705 6.55399 14.8615L8.47653 12.5314L12.2487 15.8181C12.7104 16.2203 13.3678 15.9215 13.485 15.2562L15.9834 1.07795C16.1057 0.383459 15.5301 -0.19516 14.9732 0.0624597ZM13.1385 3.20896L6.34146 10.3435C6.27371 10.4147 6.23059 10.5131 6.22051 10.6198L5.95882 13.3811C5.95027 13.4712 5.8441 13.4831 5.82144 13.3966L4.74476 9.27847C4.69544 9.08993 4.75974 8.88566 4.90105 8.78164L12.9277 2.87257C13.1123 2.73658 13.3013 3.0382 13.1385 3.20896Z" fill="white"/>
</svg>
