<svg width="46" height="46" viewBox="0 0 46 46" fill="none" xmlns="http://www.w3.org/2000/svg">
<g clip-path="url(#clip0)">
<path d="M24.8348 40.8166L40.8167 24.8347L38.9111 22.9291L37.3141 24.5262L35.3892 22.6013C33.1818 20.394 29.9492 19.5666 26.9528 20.4418L24.9833 21.0172L25.5586 19.0476C26.434 16.0512 25.6064 12.8185 23.3991 10.6113L21.4742 8.68636L23.0713 7.0893L21.1657 5.18372L5.18359 21.1656L7.08918 23.0712L8.68624 21.4741L10.6111 23.399C12.2366 25.0245 14.418 25.9017 16.6517 25.9017C17.4513 25.9017 18.2577 25.7893 19.0476 25.5586L21.0171 24.9832L20.4418 26.9528C19.5664 29.9491 20.394 33.1818 22.6012 35.3891L24.5261 37.314L22.9291 38.9111L24.8348 40.8166ZM26.9835 31.8473L28.075 28.1109L31.8112 27.0195C32.8391 26.7192 33.9134 26.6898 34.9228 26.9175L26.9064 34.9339C26.6678 33.9241 26.6882 32.858 26.9835 31.8473ZM18.2918 22.9717C16.2406 23.5709 14.0277 23.0045 12.5167 21.4934L10.5918 19.5685L19.5686 10.5918L21.4936 12.5168C23.0046 14.0278 23.571 16.2406 22.9718 18.2918L21.9138 21.9137L18.2918 22.9717ZM23.0285 27.7084L24.0865 24.0866L27.7084 23.0286C29.5586 22.4881 31.5402 22.8963 33.0198 24.0904C32.3604 24.131 31.7012 24.2442 31.0556 24.4327L25.9021 25.9383L24.3967 31.0917C24.215 31.7137 24.1058 32.3502 24.066 32.9888C22.891 31.5126 22.4918 29.5459 23.0285 27.7084Z" fill="url(#paint0_linear)"/>
<path d="M2.99886 19.5101C3.71581 15.3783 5.66812 11.6211 8.64473 8.64453C12.119 5.17027 16.7288 3.07494 21.6249 2.74467C26.0229 2.44846 30.3815 3.58408 34.041 5.95829C33.8973 6.37858 33.8216 6.82403 33.8216 7.28133C33.8216 8.37015 34.2455 9.39383 35.0155 10.1638C35.8102 10.9585 36.854 11.3558 37.8979 11.3558C38.9418 11.3558 39.9857 10.9585 40.7804 10.1638C41.5504 9.39383 41.9743 8.37024 41.9743 7.28133C41.9743 6.19242 41.5504 5.16875 40.7804 4.39887C40.0104 3.62891 38.9869 3.20485 37.8979 3.20485C37.1136 3.20485 36.3638 3.42596 35.7175 3.83672C31.5281 1.05246 26.5092 -0.285759 21.4435 0.0557371C15.8966 0.430026 10.6746 2.80352 6.73914 6.73903C3.36767 10.1105 1.15607 14.3673 0.343615 19.0493C-0.450513 23.6259 0.137963 28.2727 2.04544 32.4875L4.5006 31.3764C2.81665 27.6556 2.29745 23.5523 2.99886 19.5101ZM37.8705 5.78732C38.6955 5.78732 39.3642 6.45603 39.3642 7.28097C39.3642 8.10592 38.6955 8.77462 37.8705 8.77462C37.0456 8.77462 36.3769 8.10592 36.3769 7.28097C36.3769 6.45603 37.0456 5.78732 37.8705 5.78732Z" fill="url(#paint1_linear)"/>
<path d="M44.0983 13.8374L41.6262 14.9102C43.2297 18.6053 43.6958 22.6621 42.974 26.6421C42.2356 30.7134 40.2926 34.418 37.3552 37.3555C33.8846 40.8261 29.2799 42.9211 24.3894 43.2545C23.9258 43.2861 23.4633 43.3017 23.0014 43.3017C19.0203 43.3016 15.1275 42.1354 11.8192 39.9499C12.323 38.516 12.0028 36.8548 10.8584 35.7104C10.0884 34.9404 9.0648 34.5165 7.97589 34.5165C6.88699 34.5165 5.86331 34.9404 5.09344 35.7104C3.50401 37.2997 3.50401 39.8859 5.09344 41.4752C5.8634 42.2452 6.88699 42.6692 7.97589 42.6692C8.74711 42.6692 9.48518 42.4554 10.124 42.0578C13.9179 44.6251 18.408 45.9967 23.0015 45.9967C23.5242 45.9967 24.0482 45.9789 24.5726 45.9432C30.1131 45.5655 35.3295 43.1925 39.2607 39.2611C42.5879 35.9338 44.7888 31.7366 45.6255 27.123C46.4428 22.6169 45.9147 18.0229 44.0983 13.8374ZM7.9758 40.0863C7.15086 40.0863 6.48215 39.4176 6.48215 38.5927C6.48215 37.7677 7.15086 37.099 7.9758 37.099C8.80075 37.099 9.46946 37.7677 9.46946 38.5927C9.46946 39.4176 8.80075 40.0863 7.9758 40.0863Z" fill="url(#paint2_linear)"/>
</g>
<defs>
<linearGradient id="paint0_linear" x1="38.2715" y1="9.00153" x2="10.2742" y2="33.1812" gradientUnits="userSpaceOnUse">
<stop stop-color="#EECE83"/>
<stop offset="0.203125" stop-color="#C8A237"/>
<stop offset="0.40625" stop-color="#FFDE87"/>
<stop offset="0.59375" stop-color="#E8C970"/>
<stop offset="0.802083" stop-color="#D7AE44"/>
<stop offset="1" stop-color="#A26A0D"/>
</linearGradient>
<linearGradient id="paint1_linear" x1="38.9762" y1="3.48386" x2="13.3326" y2="32.1007" gradientUnits="userSpaceOnUse">
<stop stop-color="#EECE83"/>
<stop offset="0.203125" stop-color="#C8A237"/>
<stop offset="0.40625" stop-color="#FFDE87"/>
<stop offset="0.59375" stop-color="#E8C970"/>
<stop offset="0.802083" stop-color="#D7AE44"/>
<stop offset="1" stop-color="#A26A0D"/>
</linearGradient>
<linearGradient id="paint2_linear" x1="42.9925" y1="17.283" x2="17.6435" y2="45.9412" gradientUnits="userSpaceOnUse">
<stop stop-color="#EECE83"/>
<stop offset="0.203125" stop-color="#C8A237"/>
<stop offset="0.40625" stop-color="#FFDE87"/>
<stop offset="0.59375" stop-color="#E8C970"/>
<stop offset="0.802083" stop-color="#D7AE44"/>
<stop offset="1" stop-color="#A26A0D"/>
</linearGradient>
<clipPath id="clip0">
<rect width="46" height="46" fill="white"/>
</clipPath>
</defs>
</svg>
