<svg width="16" height="16" viewBox="0 0 16 16" fill="none" xmlns="http://www.w3.org/2000/svg">
<path d="M15.4367 9.26189C15.9141 5.24389 15.2074 2.70723 13.9327 1.55989L13.9334 1.55923C11.8761 -0.400106 4.92805 -0.690106 2.46672 1.64723C1.36139 2.79056 0.972053 4.46856 0.929386 6.54589C0.88672 8.62389 0.836053 12.5166 4.46339 13.5726H4.46672L4.46339 15.1852C4.46339 15.1852 4.43872 15.8386 4.85605 15.9699C5.33339 16.1246 5.54939 15.8212 7.03405 14.0479C9.51672 14.2632 11.4234 13.7699 11.6401 13.6979C12.1414 13.5299 14.9781 13.1546 15.4367 9.26189ZM7.27872 12.9132C7.27872 12.9132 5.70739 14.8726 5.21872 15.3812C5.05872 15.5466 4.88339 15.5312 4.88605 15.2032C4.88605 14.9879 4.89805 12.5259 4.89805 12.5259C1.82272 11.6446 2.00405 8.32989 2.03739 6.59589C2.07072 4.86123 2.38805 3.44056 3.32405 2.48389C5.48339 0.459228 11.5747 0.911894 13.1267 2.37056C15.0241 4.05256 14.3487 8.80456 14.3527 8.96656C13.9627 12.2159 11.6641 12.4219 11.2414 12.5626C11.0607 12.6226 9.38405 13.0539 7.27872 12.9132Z" fill="#A226DC"/>
<path d="M8.14758 2.8645C7.89091 2.8645 7.89091 3.2645 8.14758 3.26784C10.1389 3.28317 11.7789 4.67117 11.7969 7.21717C11.7969 7.48584 12.1902 7.4825 12.1869 7.21384H12.1862C12.1649 4.4705 10.3742 2.87984 8.14758 2.8645Z" fill="#A226DC"/>
<path d="M10.7675 6.79511C10.7615 7.06045 11.1541 7.07311 11.1575 6.80445C11.1901 5.29178 10.2575 4.04578 8.50479 3.91445C8.24812 3.89578 8.22146 4.29911 8.47746 4.31778C9.99746 4.43311 10.7981 5.47045 10.7675 6.79511Z" fill="#A226DC"/>
<path d="M10.3478 8.51603C10.0185 8.32536 9.68313 8.44403 9.54446 8.63136L9.25446 9.0067C9.10713 9.19736 8.8318 9.17203 8.8318 9.17203C6.82246 8.6407 6.28513 6.53803 6.28513 6.53803C6.28513 6.53803 6.26047 6.25336 6.44447 6.1007L6.80713 5.8007C6.98846 5.6567 7.10313 5.31003 6.91846 4.96936C6.42513 4.07803 6.0938 3.7707 5.92513 3.5347C5.7478 3.3127 5.48113 3.2627 5.2038 3.4127H5.1978C4.62113 3.75003 3.9898 4.38136 4.1918 5.03136C4.53647 5.7167 5.1698 7.90136 7.18846 9.55203C8.13713 10.3327 9.63846 11.1327 10.2758 11.3174L10.2818 11.3267C10.9098 11.536 11.5205 10.88 11.8465 10.286V10.2814C11.9911 9.99403 11.9431 9.72203 11.7318 9.54403C11.3571 9.1787 10.7918 8.77536 10.3478 8.51603Z" fill="#A226DC"/>
<path d="M8.7794 5.40266C9.42007 5.44 9.73074 5.77466 9.76407 6.462C9.77607 6.73067 10.1661 6.712 10.1541 6.44333C10.1114 5.546 9.6434 5.04599 8.80073 4.99933C8.54406 4.98399 8.52006 5.38733 8.7794 5.40266Z" fill="#A226DC"/>
</svg>
