<svg width="26" height="27" viewBox="0 0 26 27" fill="none" xmlns="http://www.w3.org/2000/svg">
<g clip-path="url(#clip0)">
<path d="M12.7053 0.79834C5.69958 0.79834 0 6.49792 0 13.5036C0 20.5096 5.69958 26.2093 12.7053 26.2093C13.2295 26.2093 13.6543 25.7844 13.6543 25.2603C13.6543 24.7361 13.2295 24.3112 12.7053 24.3112C6.74619 24.3112 1.89809 19.463 1.89809 13.5036C1.89809 7.54453 6.74619 2.69643 12.7053 2.69643C18.6644 2.69643 23.5125 7.54453 23.5125 13.5036V16.4431C23.5125 17.5405 22.6196 18.4332 21.5222 18.4332C20.4248 18.4332 19.5321 17.5405 19.5321 16.4431V13.5036C19.5321 9.7391 16.4696 6.67647 12.7052 6.67647C8.94063 6.67647 5.878 9.7391 5.878 13.5036C5.878 17.2684 8.94063 20.3313 12.7052 20.3313C14.7945 20.3313 16.6665 19.387 17.9197 17.9037C18.4983 19.3257 19.8946 20.3313 21.5222 20.3313C23.6661 20.3313 25.4106 18.5871 25.4106 16.4431V13.5036C25.4106 6.49792 19.711 0.79834 12.7053 0.79834ZM12.7053 18.4332C9.98736 18.4332 7.77622 16.2218 7.77622 13.5036C7.77622 10.7857 9.98749 8.57456 12.7053 8.57456C15.4231 8.57456 17.6341 10.7857 17.6341 13.5036C17.6341 16.2218 15.4231 18.4332 12.7053 18.4332Z" fill="url(#paint0_linear)"/>
</g>
<defs>
<linearGradient id="paint0_linear" x1="23.5956" y1="3.52094" x2="3.62983" y2="20.7638" gradientUnits="userSpaceOnUse">
<stop stop-color="#EECE83"/>
<stop offset="0.203125" stop-color="#C8A237"/>
<stop offset="0.40625" stop-color="#FFDE87"/>
<stop offset="0.59375" stop-color="#E8C970"/>
<stop offset="0.802083" stop-color="#D7AE44"/>
<stop offset="1" stop-color="#A26A0D"/>
</linearGradient>
<clipPath id="clip0">
<rect width="25.4109" height="25.4109" fill="white" transform="translate(0 0.79834)"/>
</clipPath>
</defs>
</svg>
