<svg width="34" height="34" viewBox="0 0 34 34" fill="none" xmlns="http://www.w3.org/2000/svg">
<path d="M0 33.9325C0 33.9325 11.0321 -1.33477 34 0.111309C34 0.111309 31.1516 4.72449 23.9621 6.21529C23.9621 6.21529 27.309 6.62343 30.0214 5.71867C30.0214 5.71867 28.3936 10.9655 19.5325 11.6866C19.5325 11.6866 24.4159 12.9529 26.586 12.2289C26.586 12.2289 25.9971 16.14 16.9753 18.0836C16.4406 18.1978 12.8397 19.0987 15.7328 19.4612C15.7328 19.4612 19.8912 20.1871 20.9786 19.8237C20.9786 19.8237 17.4167 25.158 8.67933 24.7061C7.82025 24.6614 7.41211 24.7061 7.41211 24.7061L0 33.9325Z" fill="url(#paint0_linear)"/>
<defs>
<linearGradient id="paint0_linear" x1="31.5714" y1="3.69635" x2="4.94839" y2="26.781" gradientUnits="userSpaceOnUse">
<stop stop-color="#EECE83"/>
<stop offset="0.203125" stop-color="#C8A237"/>
<stop offset="0.40625" stop-color="#FFDE87"/>
<stop offset="0.59375" stop-color="#E8C970"/>
<stop offset="0.802083" stop-color="#D7AE44"/>
<stop offset="1" stop-color="#A26A0D"/>
</linearGradient>
</defs>
</svg>
