<svg width="14" height="15" viewBox="0 0 14 15" fill="none" xmlns="http://www.w3.org/2000/svg">
<path d="M11.1908 14.163C10.9107 14.0788 10.6438 14.0222 10.3959 13.9203C7.82735 12.8647 5.46342 11.5029 3.59091 9.4154C2.52608 8.22832 1.69265 6.88813 0.988121 5.46983C0.654031 4.79723 0.372479 4.09829 0.0854983 3.4039C-0.17618 2.77067 0.209252 2.11648 0.61511 1.63937C0.995942 1.19161 1.48599 0.848928 2.01671 0.596384C2.43094 0.399251 2.83956 0.5129 3.14209 0.860685C3.7961 1.61258 4.39683 2.40293 4.88329 3.27449C5.18242 3.81056 5.10035 4.46585 4.55822 4.83068C4.42646 4.91935 4.30639 5.02344 4.18365 5.1236C4.07599 5.21136 3.97469 5.30004 3.9009 5.41888C3.76601 5.63634 3.75957 5.8928 3.84643 6.12922C4.51497 7.94907 5.64183 9.36418 7.49105 10.1264C7.78696 10.2483 8.08415 10.3903 8.42505 10.3509C8.99598 10.2849 9.18083 9.66457 9.58089 9.34048C9.97193 9.02378 10.4716 9.01958 10.8929 9.28361C11.3142 9.54773 11.7226 9.83126 12.1286 10.1178C12.5271 10.3991 12.9238 10.6742 13.2914 10.9948C13.6448 11.3031 13.7665 11.7076 13.5675 12.126C13.2032 12.8923 12.673 13.5298 11.9082 13.9368C11.6923 14.0515 11.4343 14.0887 11.1908 14.163C10.9107 14.0787 11.4343 14.0887 11.1908 14.163Z" fill="white"/>
</svg>
