<svg width="46" height="46" viewBox="0 0 46 46" fill="none" xmlns="http://www.w3.org/2000/svg">
<path d="M32.9725 16.1167L23.8036 7.51757C23.5155 7.24714 23.1353 7.09692 22.7406 7.09692H4.19563C3.33726 7.09692 2.6416 7.79258 2.6416 8.65095V44.446C2.6416 45.3043 3.33726 46 4.19563 46H31.9096C32.7679 46 33.4636 45.3043 33.4636 44.446V17.2501C33.4636 16.8206 33.286 16.4104 32.9725 16.1167ZM30.3555 42.8919H5.74966V10.205H22.1257L30.3555 17.9229V42.8919Z" fill="url(#paint0_linear)"/>
<path d="M20.2545 22.2229H10.6712C9.81285 22.2229 9.11719 22.9186 9.11719 23.7769C9.11719 24.6353 9.81285 25.331 10.6712 25.331H20.2546C21.1129 25.331 21.8086 24.6358 21.8086 23.7769C21.8086 22.9187 21.1129 22.2229 20.2545 22.2229Z" fill="url(#paint1_linear)"/>
<path d="M25.4347 28.3356H10.6712C9.81285 28.3356 9.11719 29.0312 9.11719 29.8896C9.11719 30.748 9.81285 31.4436 10.6712 31.4436H25.4347C26.2931 31.4436 26.9887 30.748 26.9887 29.8896C26.9887 29.0312 26.2931 28.3356 25.4347 28.3356Z" fill="url(#paint2_linear)"/>
<path d="M25.4347 34.4481H10.6712C9.81285 34.4481 9.11719 35.1438 9.11719 36.0021C9.11719 36.8605 9.81285 37.5562 10.6712 37.5562H25.4347C26.2931 37.5562 26.9887 36.8605 26.9887 36.0021C26.9887 35.1439 26.2931 34.4481 25.4347 34.4481Z" fill="url(#paint3_linear)"/>
<path d="M42.8671 9.01968L33.6987 0.420648C33.4102 0.150219 33.0304 0 32.6352 0H14.0902C13.2318 0 12.5361 0.69566 12.5361 1.55403V8.65088H15.6443V3.10814H32.0209L40.2501 10.8266V35.7951H31.91V38.9032H41.8041C42.6625 38.9032 43.3581 38.2076 43.3577 37.3492V10.1532C43.3577 9.7237 43.18 9.31347 42.8671 9.01968Z" fill="url(#paint4_linear)"/>
<path d="M34.1892 8.59905V1.55396H31.0811V10.1531C31.0811 11.0114 31.7767 11.7071 32.6351 11.7071H41.8041V8.59905H34.1892Z" fill="url(#paint5_linear)"/>
<path d="M24.2947 15.6958V8.65076H21.1865V17.2499C21.1865 18.1082 21.8822 18.8039 22.7405 18.8039H31.9095V15.6958H24.2947V15.6958Z" fill="url(#paint6_linear)"/>
<defs>
<linearGradient id="paint0_linear" x1="31.262" y1="11.2651" x2="2.4644" y2="30.9695" gradientUnits="userSpaceOnUse">
<stop stop-color="#EECE83"/>
<stop offset="0.203125" stop-color="#C8A237"/>
<stop offset="0.40625" stop-color="#FFDE87"/>
<stop offset="0.59375" stop-color="#E8C970"/>
<stop offset="0.802083" stop-color="#D7AE44"/>
<stop offset="1" stop-color="#A26A0D"/>
</linearGradient>
<linearGradient id="paint1_linear" x1="20.9021" y1="22.5559" x2="19.6064" y2="27.1252" gradientUnits="userSpaceOnUse">
<stop stop-color="#EECE83"/>
<stop offset="0.203125" stop-color="#C8A237"/>
<stop offset="0.40625" stop-color="#FFDE87"/>
<stop offset="0.59375" stop-color="#E8C970"/>
<stop offset="0.802083" stop-color="#D7AE44"/>
<stop offset="1" stop-color="#A26A0D"/>
</linearGradient>
<linearGradient id="paint2_linear" x1="25.7122" y1="28.6686" x2="24.7568" y2="33.4129" gradientUnits="userSpaceOnUse">
<stop stop-color="#EECE83"/>
<stop offset="0.203125" stop-color="#C8A237"/>
<stop offset="0.40625" stop-color="#FFDE87"/>
<stop offset="0.59375" stop-color="#E8C970"/>
<stop offset="0.802083" stop-color="#D7AE44"/>
<stop offset="1" stop-color="#A26A0D"/>
</linearGradient>
<linearGradient id="paint3_linear" x1="25.7122" y1="34.7811" x2="24.7568" y2="39.5254" gradientUnits="userSpaceOnUse">
<stop stop-color="#EECE83"/>
<stop offset="0.203125" stop-color="#C8A237"/>
<stop offset="0.40625" stop-color="#FFDE87"/>
<stop offset="0.59375" stop-color="#E8C970"/>
<stop offset="0.802083" stop-color="#D7AE44"/>
<stop offset="1" stop-color="#A26A0D"/>
</linearGradient>
<linearGradient id="paint4_linear" x1="41.1561" y1="4.1682" x2="12.3586" y2="23.8722" gradientUnits="userSpaceOnUse">
<stop stop-color="#EECE83"/>
<stop offset="0.203125" stop-color="#C8A237"/>
<stop offset="0.40625" stop-color="#FFDE87"/>
<stop offset="0.59375" stop-color="#E8C970"/>
<stop offset="0.802083" stop-color="#D7AE44"/>
<stop offset="1" stop-color="#A26A0D"/>
</linearGradient>
<linearGradient id="paint5_linear" x1="41.0382" y1="2.64179" x2="33.0088" y2="9.96546" gradientUnits="userSpaceOnUse">
<stop stop-color="#EECE83"/>
<stop offset="0.203125" stop-color="#C8A237"/>
<stop offset="0.40625" stop-color="#FFDE87"/>
<stop offset="0.59375" stop-color="#E8C970"/>
<stop offset="0.802083" stop-color="#D7AE44"/>
<stop offset="1" stop-color="#A26A0D"/>
</linearGradient>
<linearGradient id="paint6_linear" x1="31.1435" y1="9.73859" x2="23.1142" y2="17.0622" gradientUnits="userSpaceOnUse">
<stop stop-color="#EECE83"/>
<stop offset="0.203125" stop-color="#C8A237"/>
<stop offset="0.40625" stop-color="#FFDE87"/>
<stop offset="0.59375" stop-color="#E8C970"/>
<stop offset="0.802083" stop-color="#D7AE44"/>
<stop offset="1" stop-color="#A26A0D"/>
</linearGradient>
</defs>
</svg>
