<svg width="50" height="50" viewBox="0 0 50 50" fill="none" xmlns="http://www.w3.org/2000/svg">
<g clip-path="url(#clip0)">
<path d="M45.5307 27.5407H40.9018V15.2821C40.9018 14.4175 40.2008 13.7164 39.3361 13.7164H28.1372L19.1207 0.67474C18.4986 -0.224962 17.1668 -0.224864 16.5449 0.67474L3.18216 20.0031C2.46643 21.0386 3.2074 22.4592 4.47006 22.4592H9.09891V34.7178C9.09891 35.5825 9.79997 36.2835 10.6646 36.2835H21.8635L30.88 49.3252C31.5021 50.2249 32.834 50.2248 33.4558 49.3252L46.8186 29.9969C47.5344 28.9613 46.7933 27.5407 45.5307 27.5407ZM32.1679 45.6817C23.9798 33.8381 34.7447 49.4092 21.7911 30.6723H25.001C25.8656 30.6723 26.5667 29.9712 26.5667 29.1066V22.4593H31.1955C32.4566 22.4593 33.2 21.0398 32.4834 20.0032L30.3021 16.8479H37.7704V29.1066C37.7704 29.9712 38.4714 30.6723 39.3361 30.6723H42.5448L32.1679 45.6817Z" fill="url(#paint0_linear)"/>
</g>
<defs>
<linearGradient id="paint0_linear" x1="43.9414" y1="5.35713" x2="5.63745" y2="34.5976" gradientUnits="userSpaceOnUse">
<stop stop-color="#EECE83"/>
<stop offset="0.203125" stop-color="#C8A237"/>
<stop offset="0.40625" stop-color="#FFDE87"/>
<stop offset="0.59375" stop-color="#E8C970"/>
<stop offset="0.802083" stop-color="#D7AE44"/>
<stop offset="1" stop-color="#A26A0D"/>
</linearGradient>
<clipPath id="clip0">
<rect width="50" height="50" fill="white"/>
</clipPath>
</defs>
</svg>
