<svg width="15" height="15" viewBox="0 0 15 15" fill="none" xmlns="http://www.w3.org/2000/svg">
<path d="M6.34618 0H0.576925C0.258288 0 0 0.258288 0 0.576925V6.34618C0 6.66481 0.258288 6.9231 0.576925 6.9231H6.34618C6.66481 6.9231 6.9231 6.66481 6.9231 6.34618V0.576925C6.9231 0.258288 6.66481 0 6.34618 0Z" fill="url(#paint0_linear)"/>
<path d="M14.4228 0H8.65358C8.33495 0 8.07666 0.258288 8.07666 0.576925V6.34618C8.07666 6.66481 8.33495 6.9231 8.65358 6.9231H14.4228C14.7415 6.9231 14.9998 6.66481 14.9998 6.34618V0.576925C14.9998 0.258288 14.7415 0 14.4228 0Z" fill="url(#paint1_linear)"/>
<path d="M6.34618 8.0769H0.576925C0.258288 8.0769 0 8.33519 0 8.65383V14.4231C0 14.7417 0.258288 15 0.576925 15H6.34618C6.66481 15 6.9231 14.7417 6.9231 14.4231V8.65383C6.9231 8.33519 6.66481 8.0769 6.34618 8.0769Z" fill="url(#paint2_linear)"/>
<path d="M14.4228 8.0769H8.65358C8.33495 8.0769 8.07666 8.33519 8.07666 8.65383V14.4231C8.07666 14.7417 8.33495 15 8.65358 15H14.4228C14.7415 15 14.9998 14.7417 14.9998 14.4231V8.65383C14.9998 8.33519 14.7415 8.0769 14.4228 8.0769Z" fill="url(#paint3_linear)"/>
<defs>
<linearGradient id="paint0_linear" x1="6.42859" y1="0.741761" x2="0.989015" y2="5.43958" gradientUnits="userSpaceOnUse">
<stop stop-color="#EECE83"/>
<stop offset="0.203125" stop-color="#C8A237"/>
<stop offset="0.40625" stop-color="#FFDE87"/>
<stop offset="0.59375" stop-color="#E8C970"/>
<stop offset="0.802083" stop-color="#D7AE44"/>
<stop offset="1" stop-color="#A26A0D"/>
</linearGradient>
<linearGradient id="paint1_linear" x1="14.5053" y1="0.741761" x2="9.06567" y2="5.43958" gradientUnits="userSpaceOnUse">
<stop stop-color="#EECE83"/>
<stop offset="0.203125" stop-color="#C8A237"/>
<stop offset="0.40625" stop-color="#FFDE87"/>
<stop offset="0.59375" stop-color="#E8C970"/>
<stop offset="0.802083" stop-color="#D7AE44"/>
<stop offset="1" stop-color="#A26A0D"/>
</linearGradient>
<linearGradient id="paint2_linear" x1="6.42859" y1="8.81867" x2="0.989004" y2="13.5165" gradientUnits="userSpaceOnUse">
<stop stop-color="#EECE83"/>
<stop offset="0.203125" stop-color="#C8A237"/>
<stop offset="0.40625" stop-color="#FFDE87"/>
<stop offset="0.59375" stop-color="#E8C970"/>
<stop offset="0.802083" stop-color="#D7AE44"/>
<stop offset="1" stop-color="#A26A0D"/>
</linearGradient>
<linearGradient id="paint3_linear" x1="14.5053" y1="8.81867" x2="9.06566" y2="13.5165" gradientUnits="userSpaceOnUse">
<stop stop-color="#EECE83"/>
<stop offset="0.203125" stop-color="#C8A237"/>
<stop offset="0.40625" stop-color="#FFDE87"/>
<stop offset="0.59375" stop-color="#E8C970"/>
<stop offset="0.802083" stop-color="#D7AE44"/>
<stop offset="1" stop-color="#A26A0D"/>
</linearGradient>
</defs>
</svg>
