<svg width="23" height="21" viewBox="0 0 23 21" fill="none" xmlns="http://www.w3.org/2000/svg">
<path d="M22.666 5.86694C22.3167 5.62884 21.8409 5.71882 21.6028 6.06791L20.0423 8.35603C19.6368 6.4672 18.6978 4.73161 17.3005 3.3344C15.3858 1.41976 12.8402 0.365326 10.1324 0.365326C7.42472 0.365326 4.87901 1.41976 2.96438 3.3344C-0.988126 7.2869 -0.988126 13.7181 2.96438 17.6705C4.94063 19.6467 7.53653 20.6349 10.1324 20.6349C12.7283 20.6349 15.3242 19.6467 17.3005 17.6705C17.5993 17.3717 17.5993 16.8872 17.3005 16.5884C17.0017 16.2896 16.5172 16.2896 16.2185 16.5884C12.8626 19.9442 7.40238 19.9442 4.04656 16.5884C0.69075 13.2326 0.69075 7.77219 4.04656 4.41638C5.67219 2.79086 7.8335 1.89556 10.1325 1.89556C12.4316 1.89556 14.593 2.79086 16.2185 4.41648C17.4732 5.67107 18.2909 7.24752 18.5995 8.95894L15.8836 7.10654C15.5345 6.86843 15.0585 6.95841 14.8204 7.30751C14.5823 7.65661 14.6722 8.13261 15.0213 8.37072L19.0728 11.134C19.073 11.1341 19.0732 11.1343 19.0734 11.1345C19.1375 11.1782 19.2058 11.2103 19.2761 11.2323C19.2783 11.233 19.2803 11.2341 19.2824 11.2347C19.2944 11.2384 19.3065 11.2398 19.3186 11.2429C19.3798 11.2582 19.4418 11.2676 19.5038 11.2676C19.7482 11.2676 19.9885 11.1507 20.1366 10.9336L22.867 6.93025C23.1051 6.58105 23.0151 6.10505 22.666 5.86694Z" fill="white"/>
</svg>
