<svg width="30" height="34" viewBox="0 0 30 34" fill="none" xmlns="http://www.w3.org/2000/svg">
<path d="M27.9993 0H2.00144C1.4411 0 0.986816 0.454285 0.986816 1.01462V32.9854C0.986816 33.5458 1.4411 34.0001 2.00144 34.0001H27.9994C28.5598 34.0001 29.014 33.5458 29.014 32.9854V1.01462C29.014 0.454285 28.5597 0 27.9993 0ZM22.2942 27.0981H18.6474C18.087 27.0981 17.6327 26.6438 17.6327 26.0834C17.6327 25.5231 18.087 25.0688 18.6474 25.0688H22.2942C22.8545 25.0688 23.3088 25.5231 23.3088 26.0834C23.3088 26.6438 22.8546 27.0981 22.2942 27.0981ZM22.2942 22.5565H7.70653C7.14619 22.5565 6.69191 22.1022 6.69191 21.5419C6.69191 20.9815 7.14619 20.5272 7.70653 20.5272H22.2943C22.8546 20.5272 23.3089 20.9815 23.3089 21.5419C23.3089 22.1022 22.8546 22.5565 22.2942 22.5565ZM22.2942 18.0148H7.70653C7.14619 18.0148 6.69191 17.5605 6.69191 17.0002C6.69191 16.4399 7.14619 15.9856 7.70653 15.9856H22.2943C22.8546 15.9856 23.3089 16.4399 23.3089 17.0002C23.3089 17.5606 22.8546 18.0148 22.2942 18.0148ZM22.2942 13.4732H7.70653C7.14619 13.4732 6.69191 13.0189 6.69191 12.4586C6.69191 11.8983 7.14619 11.444 7.70653 11.444H22.2943C22.8546 11.444 23.3089 11.8983 23.3089 12.4586C23.3089 13.0189 22.8546 13.4732 22.2942 13.4732ZM22.2942 8.93164H7.70653C7.14619 8.93164 6.69191 8.47736 6.69191 7.91702C6.69191 7.35668 7.14619 6.9024 7.70653 6.9024H22.2943C22.8546 6.9024 23.3089 7.35668 23.3089 7.91702C23.3089 8.47736 22.8546 8.93164 22.2942 8.93164Z" fill="url(#paint0_linear)"/>
<defs>
<linearGradient id="paint0_linear" x1="27.0121" y1="3.64286" x2="1.49732" y2="21.8073" gradientUnits="userSpaceOnUse">
<stop stop-color="#EECE83"/>
<stop offset="0.203125" stop-color="#C8A237"/>
<stop offset="0.40625" stop-color="#FFDE87"/>
<stop offset="0.59375" stop-color="#E8C970"/>
<stop offset="0.802083" stop-color="#D7AE44"/>
<stop offset="1" stop-color="#A26A0D"/>
</linearGradient>
</defs>
</svg>
