<svg width="38" height="46" viewBox="0 0 38 46" fill="none" xmlns="http://www.w3.org/2000/svg">
<path d="M5.24595 18.4835C5.24595 14.3824 8.5703 11.0581 12.6714 11.0581C16.7725 11.0581 20.0969 14.3824 20.0969 18.4835C20.0969 22.5846 16.7725 25.909 12.6714 25.909C8.5703 25.909 5.24595 22.5847 5.24595 18.4835ZM15.8222 26.4154H9.52107C4.27887 26.4154 0.0137939 30.6804 0.0137939 35.9219V43.6297L0.0335354 43.7499L0.565551 43.9159C5.5675 45.4784 9.91464 46 13.4921 46C20.4795 46 24.5289 44.0074 24.7797 43.8809L25.2766 43.6287L25.329 43.6292V35.9219C25.329 30.6804 21.064 26.4154 15.8222 26.4154ZM25.329 14.8507C29.4298 14.8507 32.7544 11.5263 32.7544 7.42522C32.7544 3.32435 29.4299 0 25.329 0C21.2282 0 17.9035 3.32435 17.9035 7.42522C17.9036 11.5263 21.2282 14.8507 25.329 14.8507ZM28.4795 15.3569H22.1784C22.0281 15.3569 21.8817 15.3728 21.7334 15.38C22.3031 16.5757 22.6318 17.9083 22.6318 19.3194C22.6318 21.9233 21.5396 24.2719 19.7942 25.947C23.8783 27.1619 27.0002 30.6302 27.7107 34.9043C33.7335 34.6412 37.2054 32.9393 37.4363 32.8226L37.9332 32.5704L37.9856 32.5714V24.8641C37.9866 19.6223 33.7215 15.3569 28.4795 15.3569Z" fill="url(#paint0_linear)"/>
<defs>
<linearGradient id="paint0_linear" x1="35.2733" y1="4.92857" x2="0.737732" y2="29.5493" gradientUnits="userSpaceOnUse">
<stop stop-color="#EECE83"/>
<stop offset="0.203125" stop-color="#C8A237"/>
<stop offset="0.40625" stop-color="#FFDE87"/>
<stop offset="0.59375" stop-color="#E8C970"/>
<stop offset="0.802083" stop-color="#D7AE44"/>
<stop offset="1" stop-color="#A26A0D"/>
</linearGradient>
</defs>
</svg>
