<svg width="18" height="18" viewBox="0 0 18 18" fill="none" xmlns="http://www.w3.org/2000/svg">
<path d="M4.20649 3.64971L11.3822 1.69103L11.0022 0.922923C10.7536 0.423653 10.1472 0.217477 9.64793 0.466101L3.22412 3.64971H4.20649Z" fill="url(#paint0_linear)"/>
<path d="M13.6097 1.74756C13.5208 1.74756 13.4319 1.75969 13.3429 1.78394L11.6572 2.24481L6.50879 3.64963H12.3525H14.8994L14.584 2.49343C14.4627 2.04267 14.0544 1.74756 13.6097 1.74756Z" fill="url(#paint1_linear)"/>
<path d="M15.9524 4.35693H15.722H15.4086H15.0953H12.7041H3.91735H2.76519H1.79495H1.61505H1.01269C0.693318 4.35693 0.40831 4.50449 0.222347 4.73694C0.137451 4.84408 0.0727681 4.96738 0.0363841 5.10281C0.0141494 5.1877 0 5.27664 0 5.3676V5.48888V6.64104V16.6285C0 17.1864 0.452779 17.6391 1.01067 17.6391H15.9504C16.5083 17.6391 16.961 17.1864 16.961 16.6285V13.8087H10.9637C10.0157 13.8087 9.24559 13.0386 9.24559 12.0906V11.1648V10.8515V10.5382V9.84284C9.24559 9.37793 9.43154 8.95549 9.73273 8.64623C9.99955 8.37131 10.3573 8.18534 10.7576 8.13885C10.8243 8.13079 10.893 8.12673 10.9617 8.12673H16.1202H16.4335H16.7468H16.961V5.3676C16.9631 4.80971 16.5103 4.35693 15.9524 4.35693Z" fill="url(#paint2_linear)"/>
<path d="M17.6701 9.09339C17.569 9.00041 17.4497 8.92966 17.3163 8.88317C17.2132 8.84883 17.1041 8.82861 16.9889 8.82861H16.9626H16.9424H16.6291H15.4992H10.9633C10.4054 8.82861 9.95264 9.28137 9.95264 9.83928V10.3426V10.6559V10.9692V12.089C9.95264 12.6469 10.4054 13.0997 10.9633 13.0997H16.9626H16.9889C17.1041 13.0997 17.2132 13.0795 17.3163 13.0451C17.4497 13.0006 17.569 12.9279 17.6701 12.8349C17.8722 12.6509 17.9995 12.3841 17.9995 12.089V9.83928C17.9995 9.54415 17.8722 9.27731 17.6701 9.09339ZM13.0736 11.1653C13.0736 11.4442 12.8472 11.6706 12.5682 11.6706H12.2327C11.9538 11.6706 11.7274 11.4442 11.7274 11.1653V10.8297C11.7274 10.668 11.8022 10.5245 11.9214 10.4335C12.0083 10.3668 12.1155 10.3244 12.2327 10.3244H12.3176H12.5682C12.8472 10.3244 13.0736 10.5508 13.0736 10.8297V11.1653Z" fill="url(#paint3_linear)"/>
<defs>
<linearGradient id="paint0_linear" x1="10.7995" y1="0.713" x2="8.79707" y2="5.00245" gradientUnits="userSpaceOnUse">
<stop stop-color="#EECE83"/>
<stop offset="0.203125" stop-color="#C8A237"/>
<stop offset="0.40625" stop-color="#FFDE87"/>
<stop offset="0.59375" stop-color="#E8C970"/>
<stop offset="0.802083" stop-color="#D7AE44"/>
<stop offset="1" stop-color="#A26A0D"/>
</linearGradient>
<linearGradient id="paint1_linear" x1="14.3" y1="1.95135" x2="13.5581" y2="4.77776" gradientUnits="userSpaceOnUse">
<stop stop-color="#EECE83"/>
<stop offset="0.203125" stop-color="#C8A237"/>
<stop offset="0.40625" stop-color="#FFDE87"/>
<stop offset="0.59375" stop-color="#E8C970"/>
<stop offset="0.802083" stop-color="#D7AE44"/>
<stop offset="1" stop-color="#A26A0D"/>
</linearGradient>
<linearGradient id="paint2_linear" x1="15.7495" y1="5.78003" x2="5.25151" y2="17.3577" gradientUnits="userSpaceOnUse">
<stop stop-color="#EECE83"/>
<stop offset="0.203125" stop-color="#C8A237"/>
<stop offset="0.40625" stop-color="#FFDE87"/>
<stop offset="0.59375" stop-color="#E8C970"/>
<stop offset="0.802083" stop-color="#D7AE44"/>
<stop offset="1" stop-color="#A26A0D"/>
</linearGradient>
<linearGradient id="paint3_linear" x1="17.4248" y1="9.28623" x2="14.3985" y2="14.2103" gradientUnits="userSpaceOnUse">
<stop stop-color="#EECE83"/>
<stop offset="0.203125" stop-color="#C8A237"/>
<stop offset="0.40625" stop-color="#FFDE87"/>
<stop offset="0.59375" stop-color="#E8C970"/>
<stop offset="0.802083" stop-color="#D7AE44"/>
<stop offset="1" stop-color="#A26A0D"/>
</linearGradient>
</defs>
</svg>
