<svg width="17" height="18" viewBox="0 0 17 18" fill="none" xmlns="http://www.w3.org/2000/svg">
<path d="M16.5 9.46024C16.5 9.05255 15.7556 8.68068 14.5314 8.3986L13.2757 1.70152C13.2757 0.970413 12.683 0.377686 11.9518 0.377686H5.52177C4.79062 0.377686 4.19793 0.970413 4.19793 1.70152L2.94251 8.39753C1.71547 8.67973 0.969238 9.05204 0.969238 9.46024C0.969238 9.99505 2.24987 10.4683 4.21522 10.7579L2.63987 17.3961C2.59307 17.5933 2.71501 17.7912 2.91227 17.838C2.94075 17.8448 2.96927 17.848 2.99732 17.848C3.16348 17.848 3.31409 17.7343 3.35413 17.5656L3.79321 15.7154L8.74679 14.1857L13.7166 15.7099L14.157 17.5656C14.197 17.7344 14.3476 17.848 14.5138 17.848C14.5419 17.848 14.5704 17.8447 14.5989 17.838C14.7961 17.7912 14.918 17.5933 14.8712 17.3961L13.2944 10.7518C15.2368 10.4618 16.5 9.99138 16.5 9.46024ZM3.98995 14.8863L4.46772 12.8732L7.49857 13.8028L3.98995 14.8863ZM9.99428 13.8004L13.0402 12.8598L13.52 14.8818L9.99428 13.8004ZM12.8703 12.1439L8.74609 13.4175L4.63756 12.1574L4.94706 10.8534C6.06755 10.9823 7.35919 11.0559 8.73468 11.0559C10.1268 11.0559 11.4331 10.9805 12.563 10.8488L12.8703 12.1439Z" fill="#F3C566"/>
</svg>
