<svg width="34" height="26" viewBox="0 0 34 26" fill="none" xmlns="http://www.w3.org/2000/svg">
<path d="M21.1231 25.7694H0C0 21.467 2.82302 16.7445 6.79432 15.2924C5.94145 14.4269 5.32217 14.1647 5.01197 12.1765C4.60437 12.261 3.96746 11.7938 3.78094 11.0796C3.58972 10.3514 3.46405 9.17878 3.87875 9.06789C4.00101 9.0359 4.12925 9.06078 4.25564 9.12461V7.10583C4.25564 3.92982 3.50784 2.06601 8.69509 1.5316L8.64761 1.5198C8.64761 1.5198 10.5262 1.19879 11.6043 0.229065C11.6043 0.229065 13.5471 1.19538 14.2835 1.86982C16.1727 3.60369 16.978 4.90622 16.9101 7.10328V9.12305C17.0366 9.05921 17.1647 9.03362 17.2868 9.06717C17.7003 9.17807 17.4819 10.3983 17.2895 11.1242C17.1037 11.8319 16.5702 12.2524 16.1621 12.1801C15.8583 14.0707 15.1965 14.3682 14.2735 15.2723C18.2735 16.7092 21.1231 21.447 21.1231 25.7694ZM28.2397 16.9395C29.0153 16.1815 29.5725 15.9294 29.8297 14.3396C30.1707 14.4017 30.6204 14.047 30.7792 13.4522C30.9389 12.8421 31.1238 11.817 30.7751 11.7233C30.6734 11.6964 30.5658 11.7162 30.4599 11.7703V10.0712C30.5155 8.2254 29.8381 7.12958 28.2508 5.67123C27.6298 5.10441 25.997 4.29107 25.997 4.29107C25.0902 5.10782 23.5105 5.37808 23.5105 5.37808L23.5492 5.38817C19.1869 5.83557 19.8164 7.40538 19.8164 10.0737V11.7733C19.7105 11.7187 19.6012 11.699 19.4988 11.7258C19.1509 11.8171 19.256 12.8052 19.4165 13.4171C19.5743 14.017 20.1089 14.412 20.4508 14.3414C20.7122 16.0102 21.2323 16.2304 21.9499 16.9616C21.1961 17.2355 20.4954 17.6589 19.8534 18.18C21.6853 20.2522 22.8314 23.0773 22.8919 25.7713H34.0002C34.0017 22.1343 31.6044 18.1495 28.2397 16.9395Z" fill="url(#paint0_linear)"/>
<defs>
<linearGradient id="paint0_linear" x1="31.5716" y1="2.96573" x2="11.4822" y2="26.0608" gradientUnits="userSpaceOnUse">
<stop stop-color="#EECE83"/>
<stop offset="0.203125" stop-color="#C8A237"/>
<stop offset="0.40625" stop-color="#FFDE87"/>
<stop offset="0.59375" stop-color="#E8C970"/>
<stop offset="0.802083" stop-color="#D7AE44"/>
<stop offset="1" stop-color="#A26A0D"/>
</linearGradient>
</defs>
</svg>
