<svg width="317" height="70" viewBox="0 0 317 70" fill="none" xmlns="http://www.w3.org/2000/svg">
<rect width="317" height="70" fill="url(#paint0_linear)"/>
<path d="M81.9098 29.8156C81.8368 28.2189 81.5832 27.1285 81.2124 26.1746C80.8359 25.1737 80.2454 24.2671 79.4823 23.5177C78.7332 22.7546 77.8263 22.1639 76.8254 21.7871C75.8712 21.4166 74.7811 21.1632 73.1844 21.0906C71.5847 21.0174 71.0736 21 67 21C62.9264 21 62.4153 21.0174 60.8156 21.0902C59.2189 21.1632 58.1288 21.4168 57.1746 21.7876C56.1737 22.1641 55.2671 22.7546 54.5177 23.5177C53.7546 24.2668 53.1639 25.1734 52.7871 26.1743C52.4166 27.1285 52.1632 28.2189 52.0906 29.8154C52.0174 31.4153 52 31.9261 52 35.9998C52 40.0736 52.0174 40.5847 52.0906 42.1844C52.1634 43.7808 52.417 44.8712 52.7878 45.8254C53.1643 46.8261 53.7548 47.7329 54.5179 48.4821C55.2671 49.2452 56.1739 49.8357 57.1748 50.2122C58.1288 50.5832 59.2192 50.8366 60.8158 50.9096C62.4157 50.9826 62.9266 50.9998 67.0002 50.9998C71.0739 50.9998 71.585 50.9826 73.1846 50.9096C74.7813 50.8366 75.8715 50.5832 76.8257 50.2122C78.8405 49.4331 80.4333 47.8403 81.2124 45.8254C81.5834 44.8712 81.8368 43.7808 81.9098 42.1844C81.9826 40.5845 82 40.0736 82 36C82 31.9261 81.9826 31.4153 81.9098 29.8156ZM79.2097 42.0615C79.1431 43.524 78.8987 44.3183 78.6933 44.8467C78.1887 46.155 77.1548 47.1889 75.8465 47.6936C75.318 47.8989 74.5238 48.1433 73.0612 48.2099C71.4799 48.2823 71.0054 48.2974 67 48.2974C62.9943 48.2974 62.5201 48.2823 60.9385 48.2099C59.4762 48.1433 58.682 47.8989 58.1533 47.6936C57.5019 47.453 56.9125 47.0696 56.4286 46.5714C55.9304 46.0875 55.547 45.4984 55.3064 44.8467C55.1011 44.3183 54.8567 43.524 54.7901 42.0615C54.718 40.4799 54.7026 40.0054 54.7026 36.0002C54.7026 31.9948 54.718 31.5206 54.7901 29.9388C54.8569 28.4762 55.1011 27.682 55.3064 27.1535C55.547 26.5019 55.9306 25.9125 56.4286 25.4286C56.9125 24.9304 57.5019 24.547 58.1535 24.3067C58.682 24.1011 59.4762 23.8569 60.9388 23.7901C62.5203 23.718 62.9948 23.7026 67 23.7026H66.9998C71.005 23.7026 71.4794 23.718 73.0612 23.7903C74.5238 23.8569 75.3178 24.1013 75.8465 24.3067C76.4979 24.5472 77.0873 24.9306 77.5711 25.4286C78.0694 25.9125 78.4528 26.5019 78.6931 27.1535C78.8987 27.682 79.1431 28.4762 79.2097 29.9388C79.2818 31.5203 79.2971 31.9948 79.2971 36C79.2971 40.0054 79.282 40.4797 79.2097 42.0615Z" fill="white"/>
<path d="M67.0004 28.2971C62.7464 28.2971 59.2979 31.7459 59.2979 35.9999C59.2979 40.2539 62.7464 43.7025 67.0004 43.7025C71.2546 43.7025 74.7032 40.2539 74.7032 35.9999C74.7032 31.7459 71.2546 28.2971 67.0004 28.2971ZM67.0004 40.9998C64.2392 40.9996 62.0005 38.7611 62.0007 35.9997C62.0007 33.2384 64.2392 30.9998 67.0006 30.9998C69.7621 31 72.0006 33.2384 72.0006 35.9997C72.0006 38.7611 69.7619 40.9998 67.0004 40.9998Z" fill="white"/>
<path d="M76.8071 27.993C76.8071 28.9871 76.0012 29.793 75.0072 29.793C74.0129 29.793 73.207 28.9871 73.207 27.993C73.207 26.9988 74.0129 26.1929 75.0072 26.1929C76.0012 26.1929 76.8071 26.9988 76.8071 27.993Z" fill="white"/>
<path d="M106.716 30.984C107.988 30.984 109.116 31.296 110.1 31.92C111.084 32.532 111.816 33.3 112.296 34.224C112.776 35.148 113.016 36.12 113.016 37.14C113.016 38.4 112.752 39.36 112.224 40.02C111.696 40.668 111.066 40.992 110.334 40.992C109.194 40.992 108.48 40.488 108.192 39.48C107.712 40.092 107.07 40.398 106.266 40.398C105.45 40.398 104.772 40.122 104.232 39.57C103.704 39.018 103.44 38.328 103.44 37.5C103.44 36.672 103.704 35.982 104.232 35.43C104.772 34.878 105.45 34.602 106.266 34.602C106.986 34.602 107.592 34.866 108.084 35.394V34.746H109.47V38.724C109.47 39.78 109.848 40.308 110.604 40.308C111.132 40.308 111.564 40.05 111.9 39.534C112.248 39.006 112.422 38.208 112.422 37.14C112.422 35.556 111.87 34.224 110.766 33.144C109.674 32.064 108.324 31.524 106.716 31.524C105.06 31.524 103.65 32.1 102.486 33.252C101.322 34.392 100.74 35.808 100.74 37.5C100.74 39.228 101.334 40.656 102.522 41.784C103.722 42.912 105.228 43.476 107.04 43.476C108.228 43.476 109.248 43.308 110.1 42.972V43.548C109.26 43.86 108.24 44.016 107.04 44.016C105.072 44.016 103.434 43.398 102.126 42.162C100.818 40.938 100.164 39.384 100.164 37.5C100.164 35.688 100.788 34.152 102.036 32.892C103.296 31.62 104.856 30.984 106.716 30.984ZM105.312 38.67C105.636 38.958 106.026 39.102 106.482 39.102C106.938 39.102 107.316 38.958 107.616 38.67C107.928 38.37 108.084 37.98 108.084 37.5C108.084 37.02 107.928 36.636 107.616 36.348C107.316 36.048 106.938 35.898 106.482 35.898C106.026 35.898 105.636 36.048 105.312 36.348C105 36.636 104.844 37.02 104.844 37.5C104.844 37.98 105 38.37 105.312 38.67ZM119.102 42.234C117.746 42.234 116.618 41.784 115.718 40.884C114.818 39.972 114.368 38.844 114.368 37.5C114.368 36.156 114.818 35.034 115.718 34.134C116.618 33.222 117.746 32.766 119.102 32.766C119.99 32.766 120.788 32.982 121.496 33.414C122.204 33.834 122.732 34.404 123.08 35.124L121.766 35.88C121.538 35.4 121.184 35.016 120.704 34.728C120.236 34.44 119.702 34.296 119.102 34.296C118.202 34.296 117.446 34.602 116.834 35.214C116.234 35.826 115.934 36.588 115.934 37.5C115.934 38.4 116.234 39.156 116.834 39.768C117.446 40.38 118.202 40.686 119.102 40.686C119.702 40.686 120.242 40.548 120.722 40.272C121.202 39.984 121.568 39.6 121.82 39.12L123.152 39.894C122.768 40.602 122.216 41.172 121.496 41.604C120.776 42.024 119.978 42.234 119.102 42.234ZM129.18 32.766C130.236 32.766 131.082 33.102 131.718 33.774C132.354 34.434 132.672 35.334 132.672 36.474V42H131.106V36.564C131.106 35.832 130.908 35.268 130.512 34.872C130.116 34.464 129.57 34.26 128.874 34.26C128.094 34.26 127.464 34.506 126.984 34.998C126.504 35.478 126.264 36.222 126.264 37.23V42H124.698V29.4H126.264V34.296C126.9 33.276 127.872 32.766 129.18 32.766ZM135.956 38.22C136.112 39.024 136.478 39.648 137.054 40.092C137.642 40.536 138.362 40.758 139.214 40.758C140.402 40.758 141.266 40.32 141.806 39.444L143.138 40.2C142.262 41.556 140.942 42.234 139.178 42.234C137.75 42.234 136.586 41.79 135.686 40.902C134.798 40.002 134.354 38.868 134.354 37.5C134.354 36.144 134.792 35.016 135.668 34.116C136.544 33.216 137.678 32.766 139.07 32.766C140.39 32.766 141.464 33.234 142.292 34.17C143.132 35.094 143.552 36.21 143.552 37.518C143.552 37.746 143.534 37.98 143.498 38.22H135.956ZM139.07 34.242C138.23 34.242 137.534 34.482 136.982 34.962C136.43 35.43 136.088 36.06 135.956 36.852H141.968C141.836 36 141.5 35.352 140.96 34.908C140.42 34.464 139.79 34.242 139.07 34.242ZM152.966 42H151.022L146.918 37.734V42H145.352V29.4H146.918V36.978L150.806 33H152.822L148.52 37.356L152.966 42ZM161.048 33H162.614V42H161.048V40.452C160.268 41.64 159.134 42.234 157.646 42.234C156.386 42.234 155.312 41.778 154.424 40.866C153.536 39.942 153.092 38.82 153.092 37.5C153.092 36.18 153.536 35.064 154.424 34.152C155.312 33.228 156.386 32.766 157.646 32.766C159.134 32.766 160.268 33.36 161.048 34.548V33ZM157.844 40.722C158.756 40.722 159.518 40.416 160.13 39.804C160.742 39.18 161.048 38.412 161.048 37.5C161.048 36.588 160.742 35.826 160.13 35.214C159.518 34.59 158.756 34.278 157.844 34.278C156.944 34.278 156.188 34.59 155.576 35.214C154.964 35.826 154.658 36.588 154.658 37.5C154.658 38.412 154.964 39.18 155.576 39.804C156.188 40.416 156.944 40.722 157.844 40.722ZM166.319 35.43C166.319 35.778 166.493 36.06 166.841 36.276C167.189 36.48 167.609 36.648 168.101 36.78C168.593 36.9 169.085 37.044 169.577 37.212C170.069 37.368 170.489 37.644 170.837 38.04C171.185 38.424 171.359 38.922 171.359 39.534C171.359 40.35 171.041 41.004 170.405 41.496C169.781 41.988 168.977 42.234 167.993 42.234C167.117 42.234 166.367 42.042 165.743 41.658C165.119 41.274 164.675 40.764 164.411 40.128L165.761 39.354C165.905 39.786 166.175 40.128 166.571 40.38C166.967 40.632 167.441 40.758 167.993 40.758C168.509 40.758 168.935 40.662 169.271 40.47C169.607 40.266 169.775 39.954 169.775 39.534C169.775 39.186 169.601 38.91 169.253 38.706C168.905 38.49 168.485 38.322 167.993 38.202C167.501 38.07 167.009 37.92 166.517 37.752C166.025 37.584 165.605 37.308 165.257 36.924C164.909 36.54 164.735 36.048 164.735 35.448C164.735 34.668 165.035 34.026 165.635 33.522C166.247 33.018 167.009 32.766 167.921 32.766C168.653 32.766 169.301 32.934 169.865 33.27C170.441 33.594 170.873 34.05 171.161 34.638L169.847 35.376C169.523 34.608 168.881 34.224 167.921 34.224C167.477 34.224 167.099 34.332 166.787 34.548C166.475 34.752 166.319 35.046 166.319 35.43ZM177.608 32.766C178.664 32.766 179.51 33.102 180.146 33.774C180.782 34.434 181.1 35.334 181.1 36.474V42H179.534V36.564C179.534 35.832 179.336 35.268 178.94 34.872C178.544 34.464 177.998 34.26 177.302 34.26C176.522 34.26 175.892 34.506 175.412 34.998C174.932 35.478 174.692 36.222 174.692 37.23V42H173.125V29.4H174.692V34.296C175.328 33.276 176.3 32.766 177.608 32.766ZM190.882 40.866C189.958 41.778 188.836 42.234 187.516 42.234C186.196 42.234 185.074 41.778 184.15 40.866C183.238 39.954 182.782 38.832 182.782 37.5C182.782 36.168 183.238 35.046 184.15 34.134C185.074 33.222 186.196 32.766 187.516 32.766C188.836 32.766 189.958 33.222 190.882 34.134C191.806 35.046 192.268 36.168 192.268 37.5C192.268 38.832 191.806 39.954 190.882 40.866ZM187.516 40.704C188.416 40.704 189.172 40.398 189.784 39.786C190.396 39.174 190.702 38.412 190.702 37.5C190.702 36.588 190.396 35.826 189.784 35.214C189.172 34.602 188.416 34.296 187.516 34.296C186.628 34.296 185.878 34.602 185.266 35.214C184.654 35.826 184.348 36.588 184.348 37.5C184.348 38.412 184.654 39.174 185.266 39.786C185.878 40.398 186.628 40.704 187.516 40.704ZM203.302 30.498C201.73 30.366 200.944 31.05 200.944 32.55V33H203.302V34.512H200.944V42H199.378V34.512H196.03V42H194.464V34.512H193.024V33H194.464V32.73C194.464 31.518 194.8 30.6 195.472 29.976C196.156 29.352 197.134 29.082 198.406 29.166V30.678C196.822 30.546 196.03 31.23 196.03 32.73V33H199.378V32.55C199.378 31.338 199.714 30.42 200.386 29.796C201.058 29.172 202.03 28.902 203.302 28.986V30.498ZM203.418 44.718V43.206H211.428V44.718H203.418ZM213.3 38.22C213.456 39.024 213.822 39.648 214.398 40.092C214.986 40.536 215.706 40.758 216.558 40.758C217.746 40.758 218.61 40.32 219.15 39.444L220.482 40.2C219.606 41.556 218.286 42.234 216.522 42.234C215.094 42.234 213.93 41.79 213.03 40.902C212.142 40.002 211.698 38.868 211.698 37.5C211.698 36.144 212.136 35.016 213.012 34.116C213.888 33.216 215.022 32.766 216.414 32.766C217.734 32.766 218.808 33.234 219.636 34.17C220.476 35.094 220.896 36.21 220.896 37.518C220.896 37.746 220.878 37.98 220.842 38.22H213.3ZM216.414 34.242C215.574 34.242 214.878 34.482 214.326 34.962C213.774 35.43 213.432 36.06 213.3 36.852H219.312C219.18 36 218.844 35.352 218.304 34.908C217.764 34.464 217.134 34.242 216.414 34.242ZM223.694 35.43C223.694 35.778 223.868 36.06 224.216 36.276C224.564 36.48 224.984 36.648 225.476 36.78C225.968 36.9 226.46 37.044 226.952 37.212C227.444 37.368 227.864 37.644 228.212 38.04C228.56 38.424 228.734 38.922 228.734 39.534C228.734 40.35 228.416 41.004 227.78 41.496C227.156 41.988 226.352 42.234 225.368 42.234C224.492 42.234 223.742 42.042 223.118 41.658C222.494 41.274 222.05 40.764 221.786 40.128L223.136 39.354C223.28 39.786 223.55 40.128 223.946 40.38C224.342 40.632 224.816 40.758 225.368 40.758C225.884 40.758 226.31 40.662 226.646 40.47C226.982 40.266 227.15 39.954 227.15 39.534C227.15 39.186 226.976 38.91 226.628 38.706C226.28 38.49 225.86 38.322 225.368 38.202C224.876 38.07 224.384 37.92 223.892 37.752C223.4 37.584 222.98 37.308 222.632 36.924C222.284 36.54 222.11 36.048 222.11 35.448C222.11 34.668 222.41 34.026 223.01 33.522C223.622 33.018 224.384 32.766 225.296 32.766C226.028 32.766 226.676 32.934 227.24 33.27C227.816 33.594 228.248 34.05 228.536 34.638L227.222 35.376C226.898 34.608 226.256 34.224 225.296 34.224C224.852 34.224 224.474 34.332 224.162 34.548C223.85 34.752 223.694 35.046 223.694 35.43ZM235.133 34.512H232.739V39.39C232.739 39.834 232.823 40.152 232.991 40.344C233.171 40.524 233.441 40.62 233.801 40.632C234.161 40.632 234.605 40.62 235.133 40.596V42C233.765 42.18 232.763 42.072 232.127 41.676C231.491 41.268 231.173 40.506 231.173 39.39V34.512H229.391V33H231.173V30.948L232.739 30.48V33H235.133V34.512ZM243.982 33H245.548V42H243.982V40.452C243.202 41.64 242.068 42.234 240.58 42.234C239.32 42.234 238.246 41.778 237.358 40.866C236.47 39.942 236.026 38.82 236.026 37.5C236.026 36.18 236.47 35.064 237.358 34.152C238.246 33.228 239.32 32.766 240.58 32.766C242.068 32.766 243.202 33.36 243.982 34.548V33ZM240.778 40.722C241.69 40.722 242.452 40.416 243.064 39.804C243.676 39.18 243.982 38.412 243.982 37.5C243.982 36.588 243.676 35.826 243.064 35.214C242.452 34.59 241.69 34.278 240.778 34.278C239.878 34.278 239.122 34.59 238.51 35.214C237.898 35.826 237.592 36.588 237.592 37.5C237.592 38.412 237.898 39.18 238.51 39.804C239.122 40.416 239.878 40.722 240.778 40.722ZM252.816 34.512H250.422V39.39C250.422 39.834 250.506 40.152 250.674 40.344C250.854 40.524 251.124 40.62 251.484 40.632C251.844 40.632 252.288 40.62 252.816 40.596V42C251.448 42.18 250.446 42.072 249.81 41.676C249.174 41.268 248.856 40.506 248.856 39.39V34.512H247.074V33H248.856V30.948L250.422 30.48V33H252.816V34.512ZM255.311 38.22C255.467 39.024 255.833 39.648 256.409 40.092C256.997 40.536 257.717 40.758 258.569 40.758C259.757 40.758 260.621 40.32 261.161 39.444L262.493 40.2C261.617 41.556 260.297 42.234 258.533 42.234C257.105 42.234 255.941 41.79 255.041 40.902C254.153 40.002 253.709 38.868 253.709 37.5C253.709 36.144 254.147 35.016 255.023 34.116C255.899 33.216 257.033 32.766 258.425 32.766C259.745 32.766 260.819 33.234 261.647 34.17C262.487 35.094 262.907 36.21 262.907 37.518C262.907 37.746 262.889 37.98 262.853 38.22H255.311ZM258.425 34.242C257.585 34.242 256.889 34.482 256.337 34.962C255.785 35.43 255.443 36.06 255.311 36.852H261.323C261.191 36 260.855 35.352 260.315 34.908C259.775 34.464 259.145 34.242 258.425 34.242Z" fill="white"/>
<defs>
<linearGradient id="paint0_linear" x1="-2.36183e-06" y1="70" x2="316.406" y2="-2.59066" gradientUnits="userSpaceOnUse">
<stop stop-color="#FFCF01"/>
<stop offset="0.34375" stop-color="#FF5901"/>
<stop offset="0.666667" stop-color="#FD0154"/>
<stop offset="1" stop-color="#D901B6"/>
</linearGradient>
</defs>
</svg>
