<svg width="237" height="30" viewBox="0 0 237 30" fill="none" xmlns="http://www.w3.org/2000/svg">
<path d="M10.2471 24.3614C7.5283 24.3614 5.28272 23.458 3.51034 21.6512C1.73796 19.8444 0.851774 17.616 0.851774 14.966C0.851774 12.2989 1.73796 10.0705 3.51034 8.28091C5.28272 6.47411 7.5283 5.57072 10.2471 5.57072C11.8818 5.57072 13.3875 5.95789 14.7641 6.73223C16.1579 7.48936 17.242 8.52181 18.0163 9.82959L14.9448 11.6106C14.4974 10.8018 13.8607 10.1737 13.0347 9.72634C12.2088 9.26174 11.2795 9.02943 10.2471 9.02943C8.49192 9.02943 7.0723 9.58008 5.98823 10.6814C4.92136 11.7826 4.38792 13.2109 4.38792 14.966C4.38792 16.704 4.92136 18.1236 5.98823 19.2249C7.0723 20.3262 8.49192 20.8768 10.2471 20.8768C11.2795 20.8768 12.2088 20.6531 13.0347 20.2057C13.8779 19.7411 14.5146 19.1131 14.9448 18.3215L18.0163 20.1025C17.242 21.4103 16.1665 22.4513 14.7899 23.2257C13.4133 23.9828 11.899 24.3614 10.2471 24.3614ZM27.4267 10.733C28.8378 10.733 29.9993 11.2062 30.9113 12.1526C31.8405 13.099 32.3051 14.4068 32.3051 16.0759V24H28.9754V16.4889C28.9754 15.6285 28.7431 14.9746 28.2785 14.5272C27.8139 14.0626 27.1944 13.8303 26.4201 13.8303C25.5597 13.8303 24.8714 14.0971 24.3552 14.6305C23.839 15.1639 23.5809 15.9641 23.5809 17.0309V24H20.2512V5.93208H23.5809V12.5398C24.3896 11.3352 25.6716 10.733 27.4267 10.733ZM37.9616 18.9152C38.409 20.5327 39.6221 21.3414 41.601 21.3414C42.8744 21.3414 43.838 20.9112 44.4919 20.0509L47.1762 21.5995C45.9029 23.4408 44.0273 24.3614 41.5494 24.3614C39.4156 24.3614 37.7035 23.7161 36.4129 22.4255C35.1224 21.1349 34.4771 19.5088 34.4771 17.5472C34.4771 15.6027 35.1137 13.9852 36.3871 12.6946C37.6605 11.3869 39.2952 10.733 41.2913 10.733C43.1841 10.733 44.7414 11.3869 45.9631 12.6946C47.202 14.0024 47.8215 15.6199 47.8215 17.5472C47.8215 17.9774 47.7785 18.4334 47.6925 18.9152H37.9616ZM37.91 16.334H44.4919C44.3026 15.4565 43.9068 14.8026 43.3045 14.3724C42.7195 13.9422 42.0484 13.7271 41.2913 13.7271C40.3965 13.7271 39.6565 13.9594 39.0715 14.424C38.4864 14.8714 38.0993 15.5081 37.91 16.334ZM62.045 24H58.1733L53.4756 18.1408V24H50.1459V5.93208H53.4756V16.7728L57.9152 11.0943H61.8901L56.702 17.4697L62.045 24ZM72.5826 11.0943H75.9123V24H72.5826V22.4771C71.5846 23.7333 70.1822 24.3614 68.3754 24.3614C66.6546 24.3614 65.1748 23.7075 63.9358 22.3997C62.7141 21.0747 62.1032 19.4572 62.1032 17.5472C62.1032 15.6371 62.7141 14.0282 63.9358 12.7205C65.1748 11.3955 66.6546 10.733 68.3754 10.733C70.1822 10.733 71.5846 11.3611 72.5826 12.6172V11.0943ZM66.4395 20.1799C67.1106 20.851 67.9624 21.1866 68.9949 21.1866C70.0273 21.1866 70.8791 20.851 71.5502 20.1799C72.2385 19.4916 72.5826 18.614 72.5826 17.5472C72.5826 16.4803 72.2385 15.6113 71.5502 14.9402C70.8791 14.2519 70.0273 13.9078 68.9949 13.9078C67.9624 13.9078 67.1106 14.2519 66.4395 14.9402C65.7685 15.6113 65.4329 16.4803 65.4329 17.5472C65.4329 18.614 65.7685 19.4916 66.4395 20.1799ZM81.9023 14.7595C81.9023 15.1037 82.126 15.3876 82.5734 15.6113C83.038 15.8178 83.5973 16.0071 84.2512 16.1792C84.9051 16.334 85.5589 16.5405 86.2128 16.7986C86.8667 17.0395 87.4174 17.4525 87.8648 18.0376C88.3294 18.6226 88.5617 19.354 88.5617 20.2315C88.5617 21.5565 88.0626 22.5804 87.0646 23.3031C86.0838 24.0086 84.8534 24.3614 83.3736 24.3614C80.7236 24.3614 78.9168 23.3375 77.9532 21.2898L80.8441 19.6637C81.2226 20.7822 82.0658 21.3414 83.3736 21.3414C84.5609 21.3414 85.1546 20.9715 85.1546 20.2315C85.1546 19.8874 84.9223 19.6121 84.4577 19.4056C84.0103 19.1819 83.4596 18.984 82.8057 18.8119C82.1518 18.6398 81.498 18.4248 80.8441 18.1666C80.1902 17.9085 79.6309 17.5042 79.1663 16.9535C78.7189 16.3857 78.4952 15.6802 78.4952 14.837C78.4952 13.5636 78.9598 12.5656 79.8891 11.8429C80.8355 11.1029 82.0056 10.733 83.3994 10.733C84.4491 10.733 85.4041 10.9739 86.2645 11.4557C87.1248 11.9203 87.8045 12.5914 88.3035 13.469L85.4643 15.0177C85.0513 14.1401 84.363 13.7013 83.3994 13.7013C82.9692 13.7013 82.6078 13.7959 82.3153 13.9852C82.04 14.1745 81.9023 14.4326 81.9023 14.7595ZM97.8785 10.733C99.2896 10.733 100.451 11.2062 101.363 12.1526C102.292 13.099 102.757 14.4068 102.757 16.0759V24H99.4272V16.4889C99.4272 15.6285 99.1949 14.9746 98.7303 14.5272C98.2657 14.0626 97.6462 13.8303 96.8719 13.8303C96.0115 13.8303 95.3232 14.0971 94.807 14.6305C94.2908 15.1639 94.0327 15.9641 94.0327 17.0309V24H90.703V5.93208H94.0327V12.5398C94.8414 11.3352 96.1234 10.733 97.8785 10.733ZM116.596 22.3997C115.271 23.7075 113.653 24.3614 111.743 24.3614C109.833 24.3614 108.216 23.7075 106.891 22.3997C105.583 21.0747 104.929 19.4572 104.929 17.5472C104.929 15.6371 105.583 14.0282 106.891 12.7205C108.216 11.3955 109.833 10.733 111.743 10.733C113.653 10.733 115.271 11.3955 116.596 12.7205C117.921 14.0282 118.583 15.6371 118.583 17.5472C118.583 19.4572 117.921 21.0747 116.596 22.3997ZM109.239 20.1025C109.91 20.7736 110.745 21.1091 111.743 21.1091C112.741 21.1091 113.576 20.7736 114.247 20.1025C114.918 19.4314 115.253 18.5796 115.253 17.5472C115.253 16.5147 114.918 15.6629 114.247 14.9918C113.576 14.3208 112.741 13.9852 111.743 13.9852C110.745 13.9852 109.91 14.3208 109.239 14.9918C108.585 15.6629 108.259 16.5147 108.259 17.5472C108.259 18.5796 108.585 19.4314 109.239 20.1025ZM127.465 8.77132C125.641 8.63366 124.729 9.36498 124.729 10.9653V11.0943H127.465V14.2949H124.729V24H121.4V14.2949H119.541V11.0943H121.4V10.9653C121.4 9.14128 121.907 7.75608 122.923 6.80966C123.938 5.86325 125.452 5.45026 127.465 5.57072V8.77132ZM136.111 8.77132C134.287 8.63366 133.375 9.36498 133.375 10.9653V11.0943H136.111V14.2949H133.375V24H130.045V14.2949H128.187V11.0943H130.045V10.9653C130.045 9.14128 130.553 7.75608 131.568 6.80966C132.584 5.86325 134.098 5.45026 136.111 5.57072V8.77132ZM137.515 17.8053V14.6047H147.194V17.8053H137.515ZM154.109 20.5929H161.723V24H150.547V5.93208H161.594V9.33917H154.109V13.1851H160.949V16.5405H154.109V20.5929ZM167.15 14.7595C167.15 15.1037 167.374 15.3876 167.821 15.6113C168.286 15.8178 168.845 16.0071 169.499 16.1792C170.153 16.334 170.807 16.5405 171.461 16.7986C172.115 17.0395 172.665 17.4525 173.113 18.0376C173.577 18.6226 173.81 19.354 173.81 20.2315C173.81 21.5565 173.311 22.5804 172.313 23.3031C171.332 24.0086 170.101 24.3614 168.622 24.3614C165.972 24.3614 164.165 23.3375 163.201 21.2898L166.092 19.6637C166.471 20.7822 167.314 21.3414 168.622 21.3414C169.809 21.3414 170.403 20.9715 170.403 20.2315C170.403 19.8874 170.17 19.6121 169.706 19.4056C169.258 19.1819 168.708 18.984 168.054 18.8119C167.4 18.6398 166.746 18.4248 166.092 18.1666C165.438 17.9085 164.879 17.5042 164.414 16.9535C163.967 16.3857 163.743 15.6802 163.743 14.837C163.743 13.5636 164.208 12.5656 165.137 11.8429C166.083 11.1029 167.254 10.733 168.647 10.733C169.697 10.733 170.652 10.9739 171.512 11.4557C172.373 11.9203 173.052 12.5914 173.551 13.469L170.712 15.0177C170.299 14.1401 169.611 13.7013 168.647 13.7013C168.217 13.7013 167.856 13.7959 167.563 13.9852C167.288 14.1745 167.15 14.4326 167.15 14.7595ZM182.955 14.2949H180.038V19.6637C180.038 20.1111 180.15 20.438 180.374 20.6445C180.597 20.851 180.924 20.9715 181.355 21.0059C181.785 21.0231 182.318 21.0145 182.955 20.9801V24C180.666 24.2581 179.049 24.043 178.102 23.3547C177.173 22.6664 176.709 21.4361 176.709 19.6637V14.2949H174.463V11.0943H176.709V8.4874L180.038 7.48075V11.0943H182.955V14.2949ZM194.707 11.0943H198.037V24H194.707V22.4771C193.709 23.7333 192.307 24.3614 190.5 24.3614C188.779 24.3614 187.3 23.7075 186.061 22.3997C184.839 21.0747 184.228 19.4572 184.228 17.5472C184.228 15.6371 184.839 14.0282 186.061 12.7205C187.3 11.3955 188.779 10.733 190.5 10.733C192.307 10.733 193.709 11.3611 194.707 12.6172V11.0943ZM188.564 20.1799C189.235 20.851 190.087 21.1866 191.12 21.1866C192.152 21.1866 193.004 20.851 193.675 20.1799C194.363 19.4916 194.707 18.614 194.707 17.5472C194.707 16.4803 194.363 15.6113 193.675 14.9402C193.004 14.2519 192.152 13.9078 191.12 13.9078C190.087 13.9078 189.235 14.2519 188.564 14.9402C187.893 15.6113 187.558 16.4803 187.558 17.5472C187.558 18.614 187.893 19.4916 188.564 20.1799ZM208.439 14.2949H205.522V19.6637C205.522 20.1111 205.634 20.438 205.857 20.6445C206.081 20.851 206.408 20.9715 206.838 21.0059C207.268 21.0231 207.802 21.0145 208.439 20.9801V24C206.15 24.2581 204.532 24.043 203.586 23.3547C202.657 22.6664 202.192 21.4361 202.192 19.6637V14.2949H199.947V11.0943H202.192V8.4874L205.522 7.48075V11.0943H208.439V14.2949ZM213.196 18.9152C213.644 20.5327 214.857 21.3414 216.836 21.3414C218.109 21.3414 219.073 20.9112 219.727 20.0509L222.411 21.5995C221.138 23.4408 219.262 24.3614 216.784 24.3614C214.65 24.3614 212.938 23.7161 211.648 22.4255C210.357 21.1349 209.712 19.5088 209.712 17.5472C209.712 15.6027 210.348 13.9852 211.622 12.6946C212.895 11.3869 214.53 10.733 216.526 10.733C218.419 10.733 219.976 11.3869 221.198 12.6946C222.437 14.0024 223.056 15.6199 223.056 17.5472C223.056 17.9774 223.013 18.4334 222.927 18.9152H213.196ZM213.145 16.334H219.727C219.537 15.4565 219.141 14.8026 218.539 14.3724C217.954 13.9422 217.283 13.7271 216.526 13.7271C215.631 13.7271 214.891 13.9594 214.306 14.424C213.721 14.8714 213.334 15.5081 213.145 16.334Z" fill="white"/>
<path d="M228.865 23.6903C228.435 24.1205 227.919 24.3355 227.316 24.3355C226.714 24.3355 226.198 24.1205 225.768 23.6903C225.338 23.2601 225.122 22.7438 225.122 22.1416C225.122 21.5393 225.338 21.0231 225.768 20.5929C226.198 20.1627 226.714 19.9476 227.316 19.9476C227.919 19.9476 228.435 20.1627 228.865 20.5929C229.295 21.0231 229.51 21.5393 229.51 22.1416C229.51 22.7438 229.295 23.2601 228.865 23.6903Z" fill="url(#paint0_linear)"/>
<defs>
<linearGradient id="paint0_linear" x1="220.071" y1="3.21429" x2="213.234" y2="49.8625" gradientUnits="userSpaceOnUse">
<stop stop-color="#EECE83"/>
<stop offset="0.203125" stop-color="#C8A237"/>
<stop offset="0.40625" stop-color="#FFDE87"/>
<stop offset="0.59375" stop-color="#E8C970"/>
<stop offset="0.802083" stop-color="#D7AE44"/>
<stop offset="1" stop-color="#A26A0D"/>
</linearGradient>
</defs>
</svg>
